<?xml version="1.0" encoding="UTF-8"?>
<svg version="1.1" viewBox="0 0 1600 1600" width="1280" height="1280" xmlns="http://www.w3.org/2000/svg">
<path transform="translate(484 629)" d="m0 0c0.717 0.00148 1.43 0.00297 2.17 0.0045 0.758-0.00235 1.52-0.0047 2.3-0.00713 2.57-0.00672 5.15-0.00623 7.72-0.00582 1.85-0.0033 3.7-0.00702 5.55-0.0111 5.11-0.0101 10.2-0.0137 15.3-0.0164 5.5-0.00389 11-0.0135 16.5-0.0222 13.3-0.0198 26.6-0.0298 39.9-0.0387 6.26-0.00438 12.5-0.00975 18.8-0.015 20.8-0.017 41.6-0.0315 62.3-0.0387 1.34-4.75e-4 2.69-9.51e-4 4.03-0.00143 1-3.55e-4 1-3.55e-4 2.02-7.16e-4 3.38-0.0012 6.76-0.00242 10.1-0.00364 0.671-2.4e-4 1.34-4.8e-4 2.03-7.28e-4 21.7-0.0079 43.5-0.0313 65.2-0.0638 23-0.0343 46-0.054 68.9-0.0573 12.5-0.00217 25.1-0.011 37.6-0.0365 10.7-0.0216 21.3-0.0298 32-0.02 5.45 0.00456 10.9 0.00253 16.3-0.0168 4.98-0.0175 9.96-0.0168 14.9-0.0011 1.81 0.0024 3.62-0.00206 5.42-0.0138 2.45-0.0149 4.89-0.00557 7.34 0.0102 0.712-0.0102 1.42-0.0204 2.16-0.031 3.22 0.0458 4.81 0.12 7.16 2.42 1.22 2.41 1.43 3.95 1.42 6.65 0.00619 1.36 0.00619 1.36 0.0125 2.74-0.0108 0.986-0.0216 1.97-0.0327 2.99 4.38e-4 1.04 8.76e-4 2.09 0.00133 3.16-0.00209 3.45-0.0254 6.9-0.0489 10.4-0.0056 2.39-0.00987 4.79-0.0129 7.18-0.0115 6.3-0.0409 12.6-0.0741 18.9-0.0307 6.43-0.0444 12.9-0.0595 19.3-0.0322 12.6-0.0828 25.2-0.146 37.8-11.8 0.881-23.4 1.09-35.2 0.922-3.1-0.0433-6.21-0.0787-9.31-0.113-4.6-0.0505-9.19-0.104-13.8-0.158-13-0.153-26-0.275-39-0.389-0.698-0.00616-1.4-0.0123-2.12-0.0187-37.4-0.327-74.7-0.346-112-0.342-2.64 3.17e-4 -5.28 5.26e-4 -7.92 7.15e-4 -20.5 0.00168-40.9 0.0106-61.4 0.0235-13.8 0.00873-27.6 0.0149-41.3 0.0188-1.38 3.94e-4 -1.38 3.94e-4 -2.8 7.96e-4 -4.63 0.00131-9.27 0.00257-13.9 0.00381-37.7 0.0102-75.5 0.0276-113 0.0503-1.17-2.35-1.13-3.72-1.13-6.33-0.00282-0.91-0.00564-1.82-0.00854-2.76 0.00202-1 0.00405-2 0.00613-3.03-0.00175-1.05-0.0035-2.1-0.00531-3.19-0.00441-3.49-0.00148-6.98 0.00189-10.5-6.73e-4 -2.42-0.00164-4.83-0.0029-7.25-0.00148-5.07 6.76e-4 -10.1 0.00534-15.2 0.0057-6.51 0.00242-13-0.00357-19.5-0.0036-4.99-0.00247-9.98 1.28e-4 -15 6.69e-4 -2.4-1.6e-4 -4.8-0.00248-7.21-0.00252-3.35 0.00131-6.7 0.0069-10-0.00202-1-0.00405-2.01-0.00613-3.04 0.00282-0.907 0.00564-1.81 0.00854-2.75 3.77e-4 -0.793 7.54e-4 -1.59 0.00114-2.4 0.266-3.81 2.87-2.93 6.08-2.94z" fill="#FB0807"/>
<path transform="translate(281,425)" d="m0 0c17.7 12.3 30.3 40.3 34.2 60.8 2.89 19.1 1.9 39.6-3.17 58.2-0.485 1.86-0.485 1.86-0.98 3.76-0.943 3.44-1.97 6.83-3.02 10.2-0.357 1.22-0.714 2.45-1.08 3.71-3.92 13.3-8.87 26.3-15 38.7-1.4 3.07-1.89 4.33-1.69 7.75 2.19 3.48 4.77 6.34 7.56 9.36 3.13 3.5 5.85 7.25 8.64 11 3.11 4.2 6.33 8.32 9.55 12.4 4.15 5.32 8.28 10.6 12.4 16 2.95 3.85 5.96 7.64 9.06 11.4 4.24 5.13 8.2 10.4 12.2 15.8 3.04 4.08 6.15 8.06 9.39 12 0.708 0.864 1.42 1.73 2.14 2.62 1.19 1.44 2.39 2.86 3.62 4.27 2.61 3.18 3.32 4.69 3.1 8.86-0.613 3.93-1.9 7.13-3.67 10.7-0.637 1.3-1.27 2.61-1.91 3.91-0.352 0.72-0.704 1.44-1.07 2.18-1.77 3.69-3.44 7.43-5.12 11.2-4.95 11-10.2 21.7-16 32.2-3 0-3 0-5.19-1.88-6.71-7.15-12.5-15.2-18.4-23-2.63-3.42-5.27-6.82-7.93-10.2-0.486-0.628-0.972-1.26-1.47-1.9-0.837-1.05-0.837-1.05-1.69-2.12-1.31-1.88-1.31-1.88-1.31-3.88h-2c-1.87-2.23-1.87-2.23-4-5.19-0.701-0.963-1.4-1.93-2.12-2.92-1.88-2.89-1.88-2.89-2.94-5.7-0.309-0.726-0.619-1.45-0.938-2.2-0.99-0.33-1.98-0.66-3-1-0.333-1.33-0.667-2.67-1-4-0.99-0.33-1.98-0.66-3-1-4-5.37-4-5.37-4-8-0.99-0.33-1.98-0.66-3-1-1.39-1.96-2.72-3.96-4-6-0.577-0.743-1.15-1.48-1.75-2.25-1.25-1.75-1.25-1.75-1.25-3.75h-2c-1.29-1.46-1.29-1.46-2.62-3.38-0.446-0.626-0.892-1.25-1.35-1.9-1.02-1.73-1.02-1.73-1.02-3.73h-2c-1.45-1.74-2.81-3.54-4.12-5.38-0.724-0.998-1.45-2-2.2-3.02-1.68-2.6-1.68-2.6-1.68-4.6-3.07 0.314-4.03 1.03-6.22 3.29-0.753 0.955-1.51 1.91-2.28 2.89-0.791 1-1.58 2-2.4 3.04-2.16 2.85-4.15 5.78-6.1 8.78-2.28 3.04-4.65 6.02-7 9-0.884 1.12-1.77 2.25-2.65 3.38-1.43 1.82-2.86 3.64-4.29 5.46-2.63 3.34-5.26 6.69-7.87 10-0.536 0.687-1.07 1.37-1.62 2.08-2.16 2.83-4.24 5.71-6.3 8.61-0.416 0.473-0.833 0.946-1.26 1.43h-2c-0.0786 0.55-0.157 1.1-0.238 1.67-1.03 3.16-2.81 5.11-4.95 7.64-0.81 0.967-1.62 1.93-2.45 2.93-1.92 2.24-3.85 4.47-5.8 6.7-2.04 2.43-3.26 4.26-4.56 7.06h-2c-0.238 0.712-0.477 1.42-0.723 2.16-1.48 3.3-3.37 5.6-5.71 8.34-2.28 2.67-4.37 5.19-6.18 8.2-1.69 2.81-3.75 4.38-6.38 6.3-3.52-3.1-5.08-5.98-6.81-10.3-0.516-1.26-1.03-2.52-1.55-3.78-0.4-0.971-0.4-0.971-0.808-1.96-1.33-3.13-2.8-6.19-4.26-9.26-2.92-6.15-5.56-12.4-8.08-18.7-1.39-3.46-2.87-6.76-4.63-10.1-1.84-3.7-2.95-6.72-2.86-10.9 1.66-2.55 3.12-4.41 5.19-6.56 0.996-1.08 1.99-2.17 2.98-3.25 0.728-0.793 0.728-0.793 1.47-1.6 2.03-2.36 3.66-4.97 5.36-7.58 1.39-1.75 2.81-3.48 4.25-5.19 3.81-4.6 7.36-9.32 10.8-14.2 3.46-4.77 7.11-9.39 10.8-14 2.48-3.1 4.93-6.22 7.38-9.35 3.94-5.02 7.91-10 11.9-15 2.47-3.09 4.89-6.22 7.31-9.34 4.96-6.38 4.96-6.38 7.28-8.78 1.96-3.44 2.01-6.41 1.25-10.2-1.25-2.83-2.71-5.51-4.16-8.24-17.6-34.5-28.6-79.7-18-118 0.925-2.46 2-4.75 3.19-7.09 0.586-1.21 1.17-2.41 1.75-3.62 2.03-4.15 4.13-8.27 6.25-12.4 0.346-0.679 0.693-1.36 1.05-2.06 8.27-16.2 16.4-26.9 34.4-32.8 14.5-4.04 31.8-1.96 44.6 5.9zm-64 60c-1.47 5.73 0.0879 9.55 2 15 0.478 1.42 0.478 1.42 0.965 2.87 3.66 10.2 8.83 19.6 14 29.1 0.423 0.778 0.845 1.56 1.28 2.36 2.44 4.45 5 8.74 7.84 13 0.994 1.48 0.994 1.48 2.01 2.99 1.57 2.28 3.19 4.5 4.87 6.7 3.14-0.303 4.63-0.63 6.89-2.91 12.4-17.9 22.8-37.2 29.9-57.8 0.35-0.975 0.35-0.975 0.707-1.97 0.9-2.64 1.58-4.87 1.37-7.67-0.837-2.03-0.837-2.03-3.83-3.67-2.21-0.588-4.45-1.1-6.69-1.56-1.18-0.249-2.36-0.498-3.57-0.754-19.6-3.59-39-2.52-57.7 4.32zm-27-5 1 3zm24 126 1 4z" fill="#E9557B"/>
<path transform="translate(1330 573)" d="m0 0c0.992 0.733 0.992 0.733 2 1.48 0.473 0.44 0.946 0.879 1.43 1.33v2c0.602 0.269 1.2 0.539 1.82 0.816 10.3 5.59 16.9 21 20.3 31.7 5.68 23.7-1.18 47.6-12.1 68.5-11.3 21.7-12.8 37.6-7.37 61.1 0.367 1.92 0.367 1.92 0.367 4.92h-91c-1.3-3.24-2.49-6.38-3.56-9.69-0.716-2.21-1.4-4.24-2.44-6.31-5.65-0.0984-11.1-0.029-16.8 0.688-5.1 0.502-7.86-0.00142-12.2-2.69-6.89-6.31-7.45-16.9-8.06-25.7-0.526-8.86-0.526-8.86-2.94-17.3-2.27-1.61-2.27-1.61-5-2.31-4.88-1.57-4.88-1.57-7-3.69 1.6-3.4 3.21-6.79 4.81-10.2 0.452-0.96 0.904-1.92 1.37-2.91 0.662-1.4 0.662-1.4 1.34-2.82 0.403-0.854 0.806-1.71 1.22-2.59 1.3-2.58 2.76-5.03 4.26-7.5 0.736-1.55 1.45-3.11 2.12-4.69 0.923-2.13 1.84-4.24 2.88-6.31 0.232-3.87 0.0325-7.22-1-10.9-2.45-9.18-0.67-17.9 3.65-26.3 1.73-2.97 3.51-5.9 5.35-8.8 0.522-0.892 1.04-1.78 1.58-2.7 7.82-12.7 23.8-22.4 37.4-27.3 0.748-0.285 1.5-0.57 2.27-0.863 2.23-0.804 4.46-1.49 6.73-2.14 0.978-0.28 1.96-0.559 2.96-0.848 22.5-5.66 46.8-2.13 65.6 12z" fill="#8BBECE"/>
<path transform="translate(811,410)" d="m0 0h21c3.97 8.3 7.13 16.7 10.1 25.4 0.746 2.2 1.5 4.4 2.26 6.59 0.479 1.4 0.958 2.8 1.44 4.21 0.225 0.655 0.45 1.31 0.682 1.99 1.55 4.59 1.55 4.59 1.55 6.82h2c0.0994-0.654 0.199-1.31 0.301-1.98 1.21-7.3 3.17-14.1 5.57-21.1 0.339-1.01 0.678-2.02 1.03-3.06 2.16-6.38 4.54-12.6 7.1-18.9h21v79h-17c-1.68-3.36-1.02-7.13-0.914-10.8 0.0212-0.883 0.0425-1.77 0.0644-2.68 0.0463-1.88 0.0953-3.75 0.147-5.63 0.0771-2.84 0.145-5.68 0.211-8.53 0.0463-1.83 0.0932-3.65 0.141-5.48 0.0198-0.839 0.0397-1.68 0.0602-2.54 0.166-5.81 0.643-11.6 1.29-17.3-0.228 0.722-0.456 1.44-0.69 2.19-3.62 11.5-7.28 22.9-11.2 34.3-0.294 0.847-0.588 1.69-0.891 2.57-2.05 5.81-2.05 5.81-3.17 6.93-3.33 0.142-6.66 0.0422-10 0-3.65-8.36-6.75-16.8-9.59-25.5-0.664-2.02-1.33-4.05-2.01-6.07-3.52-10.6-3.52-10.6-4.4-14.4 0.0606 1.01 0.121 2.01 0.184 3.05 0.228 3.82 0.45 7.63 0.671 11.5 0.0953 1.64 0.192 3.27 0.291 4.91 1.33 22.1 1.33 22.1 0.854 32.6-0.33 0.33-0.66 0.66-1 1h-17v-79z" fill="#000202"/>
<path transform="translate(994,509)" d="m0 0c3.23-0.233 6.45-0.375 9.69-0.5 0.912-0.067 1.82-0.134 2.76-0.203 2.72-0.0792 4.92-0.0329 7.55 0.703 2.4 2.35 3.66 4.95 5 8 0.509 0.958 1.02 1.92 1.54 2.9 0.426 0.885 0.851 1.77 1.29 2.68 0.485 1.01 0.97 2.01 1.47 3.05 0.499 1.05 0.997 2.1 1.51 3.18 0.52 1.09 1.04 2.18 1.58 3.3 4.51 9.51 8.66 19.1 12.6 28.9-0.0715-0.626-0.143-1.25-0.217-1.9-1.02-10.3-0.894-20.5-0.846-30.9 0.00503-1.87 0.00959-3.74 0.0137-5.62 0.0101-4.54 0.0296-9.09 0.0488-13.6h18v79h-20c-5.81-10.5-11.1-21.2-16-32.2-0.291-0.638-0.581-1.28-0.881-1.93-0.839-1.85-1.67-3.7-2.49-5.55-0.482-1.08-0.964-2.15-1.46-3.26-1.15-3.05-1.75-5.85-2.16-9.07h-2c0.144 1.24 0.289 2.48 0.438 3.76 1.73 16.1 1.76 32.1 1.56 48.2h-18c-0.673-5.38-1.12-10.1-1.11-15.4-1.46e-4 -0.694-2.92e-4 -1.39-4.43e-4 -2.1 6.89e-4 -2.26 0.00843-4.52 0.0163-6.78 0.00187-1.58 0.00329-3.16 0.00429-4.74 0.0038-4.14 0.0136-8.27 0.0247-12.4 0.0103-4.23 0.0148-8.46 0.0198-12.7 0.0107-8.28 0.0277-16.6 0.0488-24.8z" fill="#000202"/>
<path transform="translate(1158,410)" d="m0 0h20c8.62 17.1 17.2 34.1 24 52-0.0715-0.78-0.143-1.56-0.217-2.36-0.866-10.5-0.899-21-0.846-31.5 0.00503-1.77 0.00959-3.53 0.0137-5.3 0.01-4.27 0.0296-8.55 0.0488-12.8h18v79h-19c-5.63-9-5.63-9-7.43-12.8-0.4-0.845-0.799-1.69-1.21-2.56-0.407-0.876-0.815-1.75-1.23-2.65-0.431-0.917-0.861-1.83-1.3-2.78-0.867-1.85-1.73-3.7-2.6-5.55-1.1-2.35-2.22-4.69-3.36-7.03-0.319-0.664-0.637-1.33-0.965-2.01-0.839-1.75-1.68-3.5-2.53-5.24-1.55-3.76-2.48-7.36-3.38-11.3h-2c0.214 1.4 0.214 1.4 0.433 2.83 1.55 10.8 1.81 21.3 1.69 32.2-0.0101 1.66-0.0192 3.32-0.0273 4.98-0.0199 4.01-0.0591 8.01-0.0977 12h-18v-79z" fill="#000102"/>
<path transform="translate(1310,410)" d="m0 0h20c8.76 17.1 16.9 34.1 24 52-0.0715-0.78-0.143-1.56-0.217-2.36-0.866-10.5-0.899-21-0.846-31.5 0.00503-1.77 0.00959-3.53 0.0137-5.3 0.01-4.27 0.0296-8.55 0.0488-12.8h18v79h-19c-5.63-9-5.63-9-7.43-12.8-0.399-0.845-0.799-1.69-1.21-2.56-0.408-0.876-0.815-1.75-1.23-2.65-0.432-0.917-0.864-1.83-1.31-2.78-1.28-2.72-2.55-5.44-3.82-8.16-0.354-0.76-0.709-1.52-1.07-2.3-1.49-3.19-2.97-6.38-4.45-9.56-1.76-3.75-3.59-7.45-5.47-11.1 0.214 1.52 0.214 1.52 0.433 3.07 1.46 10.9 1.81 21.5 1.69 32.5-0.0101 1.61-0.0192 3.22-0.0273 4.83-0.0199 3.87-0.0591 7.74-0.0977 11.6h-18v-79z" fill="#000102"/>
<path transform="translate(591,410)" d="m0 0c45.6 0 45.6 0 54 8 5.22 5.93 5.36 12.1 5.27 19.7-0.559 6.8-2.9 11.4-8.02 15.9-1.07 0.83-2.15 1.65-3.25 2.44 1.26 4.07 2.77 7.72 4.79 11.5 0.53 1 1.06 2 1.61 3.03 0.551 1.03 1.1 2.06 1.67 3.12 1.1 2.05 2.19 4.11 3.29 6.16 0.485 0.904 0.97 1.81 1.47 2.74 1.18 2.47 1.18 2.47 2.18 6.47h-22c-12-25.4-12-25.4-12-28-2.97-0.33-5.94-0.66-9-1v29h-20v-79zm20 15c-0.195 2.77-0.381 5.54-0.562 8.31-0.0561 0.786-0.112 1.57-0.17 2.38-0.0483 0.757-0.0967 1.51-0.146 2.29-0.0471 0.696-0.0943 1.39-0.143 2.11-0.0725 2.13-0.0725 2.13 1.02 4.9 1.9 0.0816 3.79 0.139 5.69 0.188 1.58 0.0522 1.58 0.0522 3.2 0.105 4.31-0.405 6.86-2.08 9.93-5.04 1.75-3.32 1.71-5.56 1.19-9.25-2.71-3.46-4.69-5.27-9-6-1.92-0.0669-3.83-0.0853-5.75-0.0625-0.985 0.00902-1.97 0.018-2.98 0.0273-1.12 0.0174-1.12 0.0174-2.27 0.0352z" fill="#000202"/>
<path transform="translate(968 518)" d="m0 0c6.56 6.88 10 16.2 10.5 25.6 0.0503 0.659 0.101 1.32 0.152 2 0.563 12.3-2.89 23.7-10.9 33-7.01 6.89-15.7 9.15-25.3 9.47-10.8-0.368-18.5-3.75-25.9-11.5-1.11-1.14-1.11-1.14-2.25-2.31-7.4-11.4-8.47-25.3-6.07-38.4 2.69-9.54 7.16-16.5 15.3-22.3 14.2-7.81 32.3-6.72 44.5 4.39zm-36.8 13.2c-4.4 8.49-5.06 18.3-2.44 27.5 1.54 4.27 3.42 7.79 6.88 10.9 4.95 1.87 9.68 1.87 14.6 0 6.05-5.36 7.07-11.6 8-19.4 0.402-7.67-0.609-14.7-5.81-20.6-3.28-2.77-5.23-3.9-9.5-4.44-5.26 0.658-8.28 2.01-11.8 6.06z" fill="#060A09"/>
<path transform="translate(453,509)" d="m0 0c3.65-0.0184 7.3-0.0293 11-0.0391 1.02-0.00524 2.05-0.0105 3.1-0.0159 13.8-0.0276 26.8 0.227 37.8 9.65 8.86 9.3 9.53 21.7 9.35 33.8-0.355 10.7-3.25 19.9-11.1 27.4-7.88 6.41-17.2 8.36-27.2 8.32-0.659-0.00141-1.32-0.00283-2-0.00429-2.09-0.00556-4.18-0.0181-6.27-0.0309-1.42-0.00502-2.85-0.00958-4.27-0.0137-3.47-0.0101-6.95-0.0291-10.4-0.0488-0.789-10.5-1.1-20.8-0.879-31.3 0.0244-1.39 0.0482-2.78 0.0715-4.17 0.0618-3.6 0.131-7.19 0.202-10.8 0.0716-3.69 0.136-7.39 0.201-11.1 0.128-7.2 0.263-14.4 0.404-21.6zm19 17c-0.098 1.4-0.128 2.81-0.129 4.21-0.00315 0.894-0.0063 1.79-0.00955 2.71 0.00202 0.973 0.00405 1.95 0.00613 2.95-9.57e-4 0.993-0.00191 1.99-0.0029 3.01-6.82e-4 2.1 0.00117 4.21 0.00534 6.31 0.00534 3.23 5.85e-5 6.46-0.00635 9.69 6.61e-4 2.04 0.00194 4.08 0.00391 6.12-0.00202 0.971-0.00405 1.94-0.00613 2.94 0.00315 0.898 0.0063 1.8 0.00955 2.72 7.96e-4 0.792 0.00159 1.58 0.00241 2.4 0.00623 2.02 0.00623 2.02 1.13 3.94 6.6-0.168 12.2-1.16 17-6 5.31-8.49 5.35-20 3.49-29.6-1.76-5.35-4.95-8.93-9.8-11.7-3.18-0.814-9.19-2.18-11.7 0.312z" fill="#000102"/>
<path transform="translate(1135 416)" d="m0 0c0.926 0.808 0.926 0.808 1.87 1.63 0 4.59-0.685 5.33-3.5 8.75-0.65 0.799-1.3 1.6-1.97 2.42-0.505 0.603-1.01 1.21-1.53 1.83-2.73-0.508-5.15-1.06-7.75-2.06-5.34-1.54-10.1-1.57-15.4 0-4.82 3.53-8.01 8.33-9.69 14.1-0.0412 0.99-0.0825 1.98-0.125 3-0.049 0.677-0.098 1.35-0.148 2.05-0.321 7.15 0.976 13.3 5.52 18.9 4.55 3.58 8.2 4.31 13.9 4.19 1.07-0.018 2.14-0.0361 3.24-0.0547 1.21-0.0348 1.21-0.0348 2.45-0.0703v-10c-3.63-0.33-7.26-0.66-11-1v-15c9.33-0.761 18.6-1.47 28-1 2.74 2.74 1.41 11.9 1.46 15.8 0.0266 1.66 0.0675 3.31 0.123 4.97 0.0793 2.39 0.112 4.78 0.136 7.17 0.033 0.737 0.066 1.47 0.1 2.23-0.0117 3.01-0.196 5.23-2.34 7.45-9.44 6.87-21.4 8.61-32.8 7.12-8.95-1.75-16.5-5.83-22.6-12.7-7.22-11.4-8.84-24.3-6.35-37.4 3.32-11 9.2-19.1 19.3-24.6 13.1-6.79 26.8-4.82 39.1 2.37z" fill="#000102"/>
<path transform="translate(534,410)" d="m0 0c2.31-0.372 2.31-0.372 5.16-0.363 1.02 6.45e-4 2.04 0.00129 3.1 0.00195 1.07 0.0161 2.14 0.0322 3.25 0.0488 1.61-0.00483 1.61-0.00483 3.25-0.00977 7.99 0.0554 7.99 0.0554 10.3 2.32 0.642 1.79 1.2 3.61 1.72 5.44 0.327 1.14 0.655 2.28 0.992 3.45 0.349 1.24 0.698 2.48 1.06 3.76 0.368 1.29 0.737 2.58 1.11 3.87 0.974 3.4 1.94 6.81 2.91 10.2 1.35 4.76 2.71 9.51 4.06 14.3 0.722 2.53 1.44 5.06 2.16 7.59 1.96 6.91 4.02 13.8 6.26 20.6 0.733 2.84 0.733 2.84 0.733 7.84h-20c-1.32-4.95-2.64-9.9-4-15-10.9-0.495-10.9-0.495-22-1-0.99 5.28-1.98 10.6-3 16h-20c1.56-8.6 3.86-16.9 6.28-25.3 0.419-1.46 0.837-2.92 1.26-4.37 0.871-3.04 1.75-6.07 2.62-9.1 1.12-3.89 2.24-7.78 3.35-11.7 0.859-3 1.72-6 2.59-9.01 0.413-1.43 0.825-2.87 1.23-4.3 0.572-2 1.15-4 1.73-5.99 0.327-1.14 0.654-2.27 0.991-3.44 0.948-2.8 0.948-2.8 2.95-5.8zm10 16c-1.01 4.39-2.01 8.79-3 13.2-0.286 1.25-0.572 2.49-0.867 3.78-0.271 1.2-0.541 2.4-0.82 3.64-0.251 1.1-0.503 2.21-0.762 3.35-0.699 3.35-0.699 3.35-0.551 8.05h15c-0.788-4.02-1.58-8.04-2.38-12.1-0.222-1.13-0.443-2.27-0.672-3.44-1.11-5.58-2.26-11.1-3.95-16.5h-2z" fill="#060A09"/>
<path transform="translate(677 648)" d="m0 0c1.03 0.0438 2.06 0.0877 3.12 0.133 3.93 1.01 4.73 2.31 6.88 5.74 1.62 3.22 3.07 6.5 4.5 9.81 0.759 1.74 1.52 3.47 2.28 5.21 0.368 0.837 0.735 1.67 1.11 2.54 1.05 2.33 2.16 4.61 3.32 6.9 1.79 3.55 1.79 3.55 2.91 6.48 0.687 2.24 0.687 2.24 2.88 3.06-0.0303-0.598-0.0606-1.2-0.0918-1.81-0.336-6.73-0.636-13.5-0.908-20.2-0.0316-0.738-0.0632-1.48-0.0957-2.24-0.0696-1.77-0.113-3.55-0.154-5.33-0.0258-0.95-0.0516-1.9-0.0781-2.88 0.414-3.23 1.26-5.04 3.33-7.56 2.34-0.559 2.34-0.559 4.94-0.438 0.855 0.0219 1.71 0.0438 2.59 0.0664 2.7 0.406 4.24 0.785 6.47 2.37 0.607 2.49 0.607 2.49 0.746 5.88 0.0287 0.642 0.0574 1.28 0.087 1.95 0.437 11.7 0.27 23.4 0.229 35.1-0.00503 2.53-0.00959 5.07-0.0137 7.6-0.0109 6.15-0.0276 12.3-0.0488 18.5-16 1.21-16 1.21-20.4-1.45-1.6-2.12-2.62-4.09-3.61-6.55-0.366-0.763-0.733-1.53-1.11-2.31-1.1-2.37-2.07-4.76-3.01-7.19-0.646-1.62-1.29-3.23-1.95-4.84-0.314-0.778-0.628-1.56-0.951-2.36-1.24-2.92-2.65-5.73-4.12-8.54-1.23-2.5-2.06-5.09-2.86-7.76h-2c0.0722 0.865 0.144 1.73 0.219 2.62 0.943 12.8 0.881 25.6 0.781 38.4-2.65 0.0268-5.29 0.0468-7.94 0.0625-0.755 0.00838-1.51 0.0168-2.29 0.0254-1.93 0.00863-3.85-0.0356-5.78-0.0879-1.83-1.83-1.14-4.77-1.15-7.23-0.00336-0.65-0.00672-1.3-0.0102-1.97-0.00954-2.16-0.0115-4.32-0.0125-6.48-0.00321-1.5-0.00657-2.99-0.0101-4.49-6e-3 -3.14-0.00784-6.28-0.00725-9.42 1.02e-4 -4.03-0.0136-8.06-0.0308-12.1-0.0111-3.09-0.0131-6.18-0.0126-9.27-0.00118-1.49-0.00562-2.97-0.0133-4.46-0.00976-2.08-0.00694-4.15-8.95e-4 -6.23-0.00143-1.18-0.00285-2.37-0.00432-3.58 0.247-2.78 0.247-2.78 2.25-4.78 3.35-1.21 6.47-1.08 10-0.875z" fill="#8CBECE"/>
<path transform="translate(920,410)" d="m0 0h23c1.8 4.79 3.49 9.38 4.95 14.3 0.351 1.17 0.701 2.34 1.06 3.54 0.553 1.86 0.553 1.86 1.12 3.76 0.391 1.31 0.783 2.63 1.17 3.94 1.03 3.46 2.05 6.91 3.07 10.4 0.63 2.13 1.26 4.26 1.89 6.39 1.03 3.49 2.06 6.98 3.08 10.5 0.388 1.32 0.778 2.65 1.17 3.97 2.18 7.39 4.11 14.7 5.48 22.3h-20c-1.32-5.28-2.64-10.6-4-16-7.26 0.33-14.5 0.66-22 1-0.474 2.29-0.949 4.58-1.44 6.94-1.44 6.94-1.44 6.94-2.56 8.06-1.49 0.0867-2.98 0.107-4.47 0.0977-0.899-0.00322-1.8-0.00645-2.72-0.00977-1.42-0.0126-1.42-0.0126-2.87-0.0254-0.949-0.00451-1.9-0.00902-2.88-0.0137-2.35-0.0118-4.71-0.0283-7.06-0.0488 1.96-8.12 4.16-16.1 6.56-24.1 2.39-7.98 4.76-16 7.08-24 0.671-2.31 1.34-4.62 2.01-6.93 0.436-1.51 0.87-3.01 1.3-4.52 0.61-2.12 1.23-4.25 1.84-6.37 0.528-1.83 0.528-1.83 1.07-3.7 1.13-3.37 1.13-3.37 4.13-9.37zm9 16c-0.843 4.21-1.67 8.42-2.5 12.6-0.238 1.19-0.477 2.38-0.723 3.61-0.226 1.15-0.451 2.31-0.684 3.5-0.314 1.59-0.314 1.59-0.635 3.21-0.607 3.54-0.607 3.54-0.459 9.07h14c-0.648-6.97-1.85-13.7-3.38-20.5-0.209-1-0.418-2-0.633-3.03-0.317-1.42-0.317-1.42-0.641-2.88-0.187-0.859-0.375-1.72-0.568-2.6-0.259-0.657-0.517-1.31-0.784-1.99-0.99-0.33-1.98-0.66-3-1z" fill="#060A09"/>
<path transform="translate(1255 410)" d="m0 0c1 0.00524 2 0.0105 3.03 0.0159 1.08 0.00322 2.16 0.00645 3.27 0.00977 1.7 0.0126 1.7 0.0126 3.44 0.0254 1.71 0.00677 1.71 0.00677 3.46 0.0137 2.83 0.0118 5.65 0.0283 8.48 0.0488 5.37 17 10.4 34.2 15.4 51.3 0.316 1.08 0.633 2.16 0.959 3.27 0.911 3.11 1.82 6.23 2.72 9.34 0.276 0.942 0.551 1.88 0.836 2.85 0.255 0.878 0.509 1.76 0.772 2.66 0.222 0.763 0.445 1.53 0.674 2.31 0.636 2.39 1.11 4.82 1.6 7.25h-20c-3-9-3-9-4-16h-23c-0.33 2.64-0.66 5.28-1 8-0.99 2.64-1.98 5.28-3 8h-19c1.36-7.33 3.17-14.4 5.3-21.5 0.318-1.08 0.637-2.16 0.964-3.27 1.01-3.42 2.03-6.84 3.05-10.3 0.672-2.27 1.34-4.54 2.01-6.8 1.29-4.37 2.59-8.74 3.89-13.1 1.13-3.79 2.24-7.59 3.34-11.4 0.232-0.8 0.465-1.6 0.704-2.43 0.423-1.46 0.844-2.92 1.26-4.39 1.67-5.77 1.67-5.77 4.79-5.93zm8.68 16.1c-1.46 3.43-2.5 6.74-3.29 10.4-0.219 1-0.438 2.01-0.664 3.04-0.222 1.04-0.443 2.07-0.672 3.14-0.229 1.04-0.459 2.08-0.695 3.15-0.913 4.22-1.68 7.94-1.68 12.3h15c-1.69-10.7-3.83-21.4-6-32h-2z" fill="#060A09"/>
<path transform="translate(530,509)" d="m0 0h49v16h-29v15h25v16h-25v16h30c1.12 10.1 1.12 10.1 0 16-6.96 0.0253-13.9 0.0428-20.9 0.0549-2.37 0.00504-4.74 0.0119-7.11 0.0205-3.4 0.0121-6.8 0.0178-10.2 0.0222-1.07 0.00516-2.13 0.0103-3.23 0.0156-0.981 7.55e-5 -1.96 1.51e-4 -2.97 2.29e-4 -0.868 0.00222-1.74 0.00444-2.63 0.00673-1.98-0.12-1.98-0.12-2.98-1.12-0.095-2.43-0.126-4.84-0.114-7.27-1.46e-4 -0.761-2.92e-4 -1.52-4.43e-4 -2.31 6.99e-4 -2.53 0.00849-5.05 0.0163-7.58 0.00186-1.75 0.00329-3.49 0.00429-5.24 0.00383-4.61 0.0137-9.22 0.0247-13.8 0.012-5.52 0.0166-11 0.0225-16.6 0.00971-8.4 0.0289-16.8 0.0462-25.2z" fill="#000202"/>
<path transform="translate(667,509)" d="m0 0h48v16h-29v15h25v16h-25v16h30c0.495 7.92 0.495 7.92 1 16h-50c-1.13-12.4-1.13-12.4-1.13-17.7-0.00315-1.2-0.0063-2.4-0.00955-3.63 0.00202-1.26 0.00405-2.51 0.00613-3.8-6.76e-4 -1.34-0.00165-2.67-0.0029-4.01-0.00146-2.78 6.31e-4 -5.55 0.00534-8.33 0.00572-3.54 0.0024-7.08-0.00357-10.6-0.0045-3.41-0.00134-6.82 0.00113-10.2-0.00202-1.26-0.00405-2.53-0.00613-3.83 0.00315-1.19 0.0063-2.37 0.00955-3.59 7.96e-4 -1.03 0.00159-2.07 0.00241-3.14 0.139-3.38 0.649-6.74 1.13-10.1z" fill="#000202"/>
<path transform="translate(453,410)" d="m0 0h49c0 11 0 11-1 16-9.24 0.33-18.5 0.66-28 1v13c7.92 0.33 15.8 0.66 24 1v16h-25c0.33 4.95 0.66 9.9 1 15 14.9 0.495 14.9 0.495 30 1v15c-1 1-1 1-2.98 1.12-0.868-0.00222-1.74-0.00444-2.63-0.00673-0.981-7.55e-5 -1.96-1.51e-4 -2.97-2.29e-4 -1.07-0.00516-2.13-0.0103-3.23-0.0156-1.63-0.00212-1.63-0.00212-3.29-0.00429-3.48-0.00562-6.97-0.0182-10.5-0.0309-2.36-0.00501-4.71-0.00958-7.07-0.0137-5.79-0.0111-11.6-0.0278-17.4-0.0488-0.172-7.07-0.331-14.1-0.482-21.2-0.0525-2.39-0.108-4.79-0.166-7.18-0.41-16.9-0.145-33.7 0.648-50.6z" fill="#000202"/>
<path transform="translate(853 649)" d="m0 0c0.888 0.018 1.78 0.0361 2.69 0.0547 2.19 0.047 4.37 0.113 6.56 0.195 2.25 5.05 4.11 10.1 5.75 15.4 0.253 0.807 0.506 1.61 0.767 2.44 2.81 9.07 5.34 18.2 7.87 27.4 0.953 3.45 1.92 6.9 2.95 10.3 0.365 1.23 0.73 2.46 1.11 3.72 0.308 1.02 0.616 2.03 0.934 3.08 0.626 2.66 0.753 4.95 0.629 7.67-2.79 0.0538-5.58 0.0936-8.38 0.125-0.794 0.0168-1.59 0.0335-2.41 0.0508-2.07 0.0176-4.15-0.0724-6.22-0.176-3.6-3.6-3.87-9.16-5-14h-17c-0.474 1.38-0.949 2.76-1.44 4.19-0.267 0.777-0.534 1.55-0.809 2.36-0.749 2.44-1.25 4.95-1.75 7.46h-17c-1.08-4.32-0.762-5.81 0.406-10 0.493-1.78 0.493-1.78 0.995-3.6 0.362-1.27 0.725-2.53 1.1-3.84 0.368-1.31 0.736-2.62 1.1-3.94 2.45-8.67 5.15-17.2 8.09-25.7 1.88-5.47 3.41-10.9 4.5-16.6 2.59-7.36 7.79-6.79 14.6-6.53z" fill="#8CBFCF"/>
<path transform="translate(786 653)" d="m0 0c2.5 2.25 2.5 2.25 3.69 5.12-0.209 3.48-1.06 5.5-3.47 8.06-4.21 2.6-9.8 0.273-14.3-0.75-4.68-0.255-7.63 1.18-11.4 3.81-5.88 6.19-6.45 11.2-6.32 19.6 0.432 4.68 1.34 6.81 4.32 10.4 3.87 2.86 6.54 3.34 11.3 3.19 1.07-0.0271 2.14-0.0541 3.24-0.082 1.21-0.0522 1.21-0.0522 2.45-0.105v-7c-0.638-0.205-1.28-0.41-1.93-0.621-0.826-0.269-1.65-0.539-2.5-0.816-0.824-0.267-1.65-0.534-2.5-0.809-2.07-0.754-2.07-0.754-3.07-1.75-0.125-1.64-0.176-3.29-0.188-4.94-0.0142-0.896-0.0284-1.79-0.043-2.71 0.23-2.35 0.23-2.35 2.23-4.35 3.36-1.18 6.65-1.17 10.2-1.19 1.07-0.0142 2.13-0.0284 3.23-0.043 4.34 0.279 8.38 1.18 12.6 2.23-0.0443 4.18-0.114 8.36-0.208 12.5-0.0281 1.42-0.0494 2.84-0.0635 4.26-0.0215 2.05-0.0682 4.1-0.12 6.14-0.0209 1.23-0.0419 2.46-0.0635 3.73-0.642 3.91-1.77 5.55-4.55 8.32-9.01 4.67-20.5 5.09-30.3 2.91-8.68-2.91-16.4-7.64-20.7-15.9-4.41-9.82-4.24-20.1-1-30.2 4.19-10.5 10-15.9 20.2-20.7 9.55-3.69 20.2-2.9 29.3 1.66z" fill="#8CBFCF"/>
<path transform="translate(508 648)" d="m0 0c1.91 0.0406 1.91 0.0406 3.86 0.082 1.46 0.0522 1.46 0.0522 2.96 0.105 1.13 2.27 1.14 3.53 1.16 6.05 0.0103 0.835 0.0205 1.67 0.0311 2.53 0.0073 0.905 0.0146 1.81 0.0221 2.74 0.0281 1.92 0.0568 3.83 0.0859 5.75 0.0411 3.02 0.078 6.04 0.104 9.06 0.0278 2.92 0.0737 5.83 0.122 8.75 0.00325 0.893 0.00651 1.79 0.00986 2.71 0.112 5.77 1.02 10.2 3.47 15.4 2.57 1.28 4.57 1.28 7.44 1.38 0.968 0.049 1.94 0.098 2.93 0.148 2.74-0.268 2.74-0.268 4.27-2.4 1.97-4.52 1.76-8.68 1.73-13.6 0.0174-2.07 0.035-4.13 0.0527-6.2 0.0101-3.25 0.0137-6.5 0.012-9.75 0.00356-3.14 0.0308-6.28 0.0603-9.43-0.00818-0.975-0.0164-1.95-0.0248-2.95 0.01-0.905 0.0201-1.81 0.0304-2.74-1.66e-4 -0.795-3.32e-4 -1.59-5.04e-4 -2.41 0.499-2.07 0.499-2.07 2.34-3.83 2.89-1.66 5.03-1.57 8.34-1.49 1.07 0.0155 2.13 0.0309 3.23 0.0469 2.58 0.203 2.58 0.203 3.58 1.2 0.173 2.83 0.284 5.63 0.352 8.46 0.0232 0.86 0.0463 1.72 0.0702 2.61 0.0478 1.83 0.093 3.66 0.136 5.49 0.0663 2.77 0.144 5.53 0.224 8.3 0.694 26.3 0.694 26.3-6.53 37.9-5.47 5.32-12 7.16-19.5 7.38-9.15-0.166-16.4-2.63-23.8-8.19-2.27-2.59-3.56-4.99-4.62-8.25-0.24-0.706-0.48-1.41-0.727-2.14-1.62-6.53-1.82-13.1-1.85-19.8-0.0057-0.847-0.0114-1.69-0.0173-2.57-0.00938-1.78-0.016-3.55-0.0198-5.33-0.0098-2.72-0.0409-5.44-0.0723-8.16-0.00652-1.73-0.0118-3.46-0.0156-5.19-0.0123-0.812-0.0247-1.62-0.0374-2.46 0.0224-5.63 0.0224-5.63 1.68-7.8 2.76-2.1 5.49-1.56 8.87-1.47z" fill="#8CBFCF"/>
<path transform="translate(788 515)" d="m0 0c1.39 1.38 1.39 1.38 3.27 3.62-0.41 0.543-0.82 1.09-1.24 1.64-0.539 0.715-1.08 1.43-1.63 2.17-0.534 0.708-1.07 1.42-1.62 2.14-1.22 1.65-2.37 3.34-3.51 5.04-2.63-0.451-4.88-0.945-7.31-2.06-4.95-1.73-9.12-1.51-13.9 0.25-4.66 3.07-6.95 6.61-8.75 11.8-1.67 9.56-1.09 17.4 3.62 25.9 3.45 3 6.85 4.38 11.4 5.06 4.65-0.366 8.11-1.41 12-4 3.37 0.124 4.64 0.636 7.02 3.07 0.592 0.824 1.18 1.65 1.79 2.5 0.605 0.826 1.21 1.65 1.83 2.5 0.447 0.638 0.895 1.28 1.36 1.93-3.92 5.88-8.84 7.76-15.2 10.2-10 1.97-19.6 1.33-28.8-3.25-8.6-5.93-14-14.1-16.6-24.3-1.93-12-0.844-24.9 6.31-35.1 6.9-8.18 13.9-12.6 24.2-15.4 8.92-0.546 18.6 0.455 25.8 6.19z" fill="#000102"/>
<path transform="translate(1447,418)" d="m0 0c-0.519 4.17-1.71 6.25-4.56 9.31-0.641 0.697-1.28 1.39-1.94 2.11-0.494 0.519-0.987 1.04-1.5 1.57-0.545-0.217-1.09-0.433-1.65-0.656-6.13-2.27-11.9-3.73-18.3-1.72-5.1 2.45-7.12 6.2-9.02 11.4-2.49 7.9-1.43 16.6 2 24 2.5 3.92 4.45 5.91 9 7 7.19 0.807 11.8-0.326 18-4 1.67 1.67 3.33 3.33 5 5 0.763 0.681 1.53 1.36 2.31 2.06 1.69 1.94 1.69 1.94 1.69 5.94-1.79 1.63-1.79 1.63-4.19 3.12-0.777 0.498-1.55 0.995-2.36 1.51-8.78 4.89-18.8 5.8-28.5 3.24-10.4-3.49-17.2-9.93-22-19.7-4.34-10.8-4.75-23.4-0.77-34.3 4.75-10.6 11.1-16.9 21.6-21.7 13.1-4.78 24-1.63 35.2 5.81z" fill="#060909"/>
<path transform="translate(711,410)" d="m0 0h21c2.92 7.08 5.46 14.2 7.75 21.5 0.316 0.987 0.632 1.97 0.957 2.99 2.29 7.25 2.29 7.25 2.29 9.51 2.21-0.831 2.21-0.831 2.9-3.17 0.299-0.943 0.598-1.89 0.907-2.86 0.336-1.04 0.673-2.08 1.02-3.15 0.52-1.64 0.52-1.64 1.05-3.32 0.68-2.14 1.37-4.27 2.05-6.41 0.301-0.952 0.603-1.9 0.914-2.88 1.5-4.16 3.36-8.17 5.16-12.2h20c-2.51 6.78-5.11 13.4-8.19 19.9-0.426 0.926-0.426 0.926-0.86 1.87-1.74 3.75-3.6 7.39-5.59 11-8.12 15.4-8.86 29-8.36 46.2-3.15 0.0289-6.29 0.0468-9.44 0.0625-0.898 0.00838-1.8 0.0168-2.72 0.0254-1.28 0.00483-1.28 0.00483-2.59 0.00977-0.791 0.00524-1.58 0.0105-2.4 0.0159-1.86-0.114-1.86-0.114-2.86-1.11-0.0485-1.75-0.0365-3.51 0-5.27 0.0747-15.1-1.7-26.3-8.52-39.7-2.72-5.5-5.17-11.1-7.66-16.7-0.88-1.98-1.77-3.95-2.66-5.92-0.541-1.2-1.08-2.39-1.64-3.63-0.487-1.08-0.975-2.15-1.48-3.26-1.05-2.44-1.05-2.44-1.05-3.44z" fill="#060A09"/>
<path transform="translate(1451,410)" d="m0 0h21c1.27 3.88 2.53 7.75 3.79 11.6 0.428 1.32 0.858 2.63 1.29 3.95 0.622 1.9 1.24 3.8 1.85 5.7 0.372 1.14 0.744 2.28 1.13 3.46 0.891 3.08 1.48 6.08 1.94 9.25 2.75-1.37 2.93-3.18 3.88-5.97 0.227-0.692 0.454-1.38 0.688-2.1 0.239-0.706 0.478-1.41 0.724-2.14 0.764-2.26 1.52-4.53 2.27-6.8 0.758-2.27 1.52-4.53 2.28-6.8 0.475-1.41 0.947-2.82 1.42-4.24 1.63-4.86 1.63-4.86 2.74-5.97 1.49-0.0867 2.98-0.107 4.47-0.0977 0.899 0.00322 1.8 0.00645 2.72 0.00977 1.42 0.0126 1.42 0.0126 2.87 0.0254 0.949 0.00451 1.9 0.00902 2.88 0.0137 2.35 0.0118 4.71 0.0283 7.06 0.0488-1.68 5.55-4.07 10.7-6.5 15.9-0.653 1.45-0.653 1.45-1.32 2.93-2.24 4.96-4.53 9.87-7.03 14.7-7.54 15.1-8.57 28.6-8.15 45.4h-19c-0.727-3.64-1.1-5.95-0.957-9.48 0.0213-0.837 0.0425-1.67 0.0645-2.54 0.0527-1.72 0.117-3.44 0.195-5.16 0.289-14-7.97-27.3-13.6-39.9-1.66-3.72-3.31-7.44-4.95-11.2-0.381-0.852-0.762-1.7-1.16-2.58-0.347-0.785-0.695-1.57-1.05-2.38-0.462-1.04-0.462-1.04-0.932-2.09-0.656-1.72-0.656-1.72-0.656-3.72z" fill="#000102"/>
<path transform="translate(613,654)" d="m0 0c1.43 2.85 1.31 4.83 1 8-1.56 2.88-1.56 2.88-4 5-4.32 0.604-7.95-0.205-12.1-1.19-3.47-0.749-4.54-0.944-7.94 0.375-2.18 1.75-2.18 1.75-2.94 4.81 2.97 1.21 5.95 2.35 8.96 3.45 9.74 3.65 16.1 6.8 21.5 16 1.49 6.78 1.11 13.5-2.44 19.6-8 8-15.8 8.86-26.6 9.04-7.68-0.335-15.9-3.56-21.4-9.04 0.266-3.85 2.5-6.21 5-9 3-2 3-2 5.88-1.75 3.12 0.75 3.12 0.75 5.39 1.76 3.24 1.18 6.11 1.41 9.54 1.62 1.16 0.0748 2.32 0.15 3.52 0.227 0.88 0.049 1.76 0.098 2.67 0.148-0.33-2.64-0.66-5.28-1-8-1.3-0.425-1.3-0.425-2.63-0.859-9.52-3.22-18.6-6.61-25.3-14.4-1.95-5.05-3.01-9.98-1.21-15.2 4.63-8.91 11.8-13 21.1-16.2 7.5-1.25 16.7 1.76 23.1 5.65z" fill="#8CBFCF"/>
<path transform="translate(593,509)" d="m0 0h60v16h-20v63h-20v-63h-20v-16z" fill="#000102"/>
<path transform="translate(798,509)" d="m0 0h60c1 9 1 9 0 16-6.27 0.33-12.5 0.66-19 1-0.33 20.5-0.66 40.9-1 62h-19c-0.33-20.5-0.66-40.9-1-62-6.6-0.33-13.2-0.66-20-1v-16z" fill="#000002"/>
<path transform="translate(667,410)" d="m0 0h19c1 1 1 1 1.12 3.47-0.00333 1.65-0.00333 1.65-0.00673 3.33-7.55e-5 1.24-1.51e-4 2.48-2.29e-4 3.76-0.00511 1.36-0.0103 2.73-0.0156 4.09-0.00186 1.39-0.00329 2.78-0.00429 4.17-0.00382 3.66-0.0137 7.32-0.0247 11-0.0102 3.73-0.0148 7.47-0.0198 11.2-0.0102 7.33-0.0298 14.7-0.0488 22h29v16h-49v-79z" fill="#000102"/>
<path transform="translate(976,410)" d="m0 0h20v62c9.57 0.33 19.1 0.66 29 1 0.0206 2.45 0.0412 4.91 0.0625 7.44 0.0091 0.774 0.0182 1.55 0.0276 2.35 0.00716 1.74-0.0398 3.48-0.0901 5.22-1 1-1 1-2.94 1.12-0.85-0.00222-1.7-0.00444-2.58-0.00673-0.974-1.21e-4 -1.95-2.42e-4 -2.95-3.66e-4 -1.03-0.00512-2.06-0.0102-3.13-0.0155-1.41-0.00151-1.41-0.00151-2.86-0.00305-3.54-0.00525-7.07-0.0192-10.6-0.0321-7.9-0.0206-15.8-0.0412-23.9-0.0625v-79z" fill="#000102"/>
<path transform="translate(401,409)" d="m0 0c2.62 0.375 2.62 0.375 5 1-0.0292 0.638-0.0584 1.28-0.0885 1.93-0.844 19-1.08 37.9-1.11 56.9-0.00816 4.15-0.0218 8.31-0.0347 12.5-0.0215 7.16-0.0398 14.3-0.0556 21.5-0.0229 10.4-0.051 20.7-0.0803 31.1-0.0474 16.8-0.0908 33.6-0.131 50.4-0.0395 16.3-0.0809 32.6-0.125 48.9-0.00272 1.01-0.00545 2.02-0.00826 3.06-0.0137 5.06-0.0274 10.1-0.0411 15.2-0.114 41.8-0.22 83.7-0.323 126-1.94-0.312-1.94-0.312-4-1-1.08-3.25-1.13-5.6-1.13-9.02-0.00322-1.27-0.00645-2.53-0.00977-3.84 0.00147-1.41 0.00304-2.83 0.00469-4.24-0.00187-1.49-0.00417-2.99-0.00687-4.48-0.00614-4.12-0.00598-8.23-0.00481-12.4 2.04e-4 -4.44-0.00531-8.87-0.0101-13.3-0.00832-8.69-0.0111-17.4-0.0116-26.1-4.75e-4 -7.06-0.00253-14.1-0.0057-21.2-0.00881-20-0.0134-40-0.0127-60 4e-5 -1.08 7.99e-5 -2.16 1.21e-4 -3.27 4.09e-5 -1.08 8.18e-5 -2.16 1.24e-4 -3.27 4.07e-4 -17.5-0.00917-35-0.0233-52.6-0.0143-18-0.0213-35.9-0.0204-53.9 3.33e-4 -10.1-0.00245-20.2-0.0132-30.3-0.00908-8.6-0.0113-17.2-0.00449-25.8 0.00328-4.39 0.00327-8.78-0.00535-13.2-0.0078-4.01-0.0065-8.02 0.00228-12 0.00155-1.46-3.32e-4 -2.91-0.00586-4.37-0.00698-1.97-6.15e-4 -3.94 0.00656-5.91-2.17e-4 -1.1-4.35e-4 -2.19-6.59e-4 -3.33 0.25-2.57 0.25-2.57 2.25-4.57zm1 14 1 2zm0 3 1 2zm-1 55v5h1v-5h-1zm0 7v12h1v-12h-1zm0 88v5h1v-5h-1zm0 7v10h1v-10h-1zm0 18v5h1v-5h-1zm0 6v30h1v-30h-1zm0 127 1 2zm0 4v8h1v-8h-1zm0 11 1 4zm1 12 1 2z" fill="#030605"/>
<path transform="translate(454,510)" d="m0 0c7.67-0.0619 7.67-0.0619 15.5-0.125 2.4-0.0273 2.4-0.0273 4.84-0.0552 1.28-5e-3 2.56-0.00999 3.88-0.0151 1.3-0.0105 2.6-0.0209 3.94-0.0317 9.1 0.537 17 3.66 23.7 9.94 8.75 10.5 9.29 24.3 8.17 37.3-1.29 9.52-4.69 17-11.8 23.6-2.25 1.44-2.25 1.44-4.25 1.44 0.495-1.49 0.495-1.49 1-3h3v-5c1.32-0.66 2.64-1.32 4-2-0.248-1.18-0.248-1.18-0.5-2.38-0.5-2.62-0.5-2.62-0.5-4.62-0.66-0.413-1.32-0.825-2-1.25-2-1.75-2-1.75-2.25-4.94 0.0825-0.928 0.165-1.86 0.25-2.81-0.99 0.33-1.98 0.66-3 1v-2h-3c-0.17-1.29-0.34-2.58-0.516-3.91-0.244-1.72-0.489-3.43-0.734-5.15-0.11-0.848-0.219-1.7-0.332-2.57-0.829-5.65-2.13-9.66-5.42-14.4-5.53-3.29-8.17-3-15-3-0.33 6.6-0.66 13.2-1 20-3.28-3.28-2.86-7.52-3-12 0.188-3.04 0.561-5.98 1-9-2.97-0.495-2.97-0.495-6-1v-4h-2l-1-2h-4c-0.766 3.46-1.17 6.76-1.32 10.3-0.0419 0.976-0.0838 1.95-0.127 2.96-0.0393 1.01-0.0786 2.01-0.119 3.05-0.0432 1.03-0.0864 2.05-0.131 3.11-0.106 2.53-0.208 5.05-0.307 7.58h-1v-35z" fill="#060A09"/>
<path transform="translate(873,509)" d="m0 0h19c1.49 2.99 1.08 6.02 1.02 9.3-0.00961 0.751-0.0192 1.5-0.0291 2.28-0.033 2.49-0.0734 4.98-0.114 7.47-0.0243 1.72-0.0481 3.45-0.0715 5.17-0.0629 4.54-0.132 9.08-0.202 13.6-0.0706 4.63-0.135 9.26-0.201 13.9-0.129 9.09-0.265 18.2-0.404 27.3h-19v-79z" fill="#000102"/>
<path transform="translate(1041,410)" d="m0 0h19v79h-19v-79z" fill="#000102"/>
<path transform="translate(811,410)" d="m0 0h21c3 6 3 6 2.19 8.88-0.392 0.701-0.784 1.4-1.19 2.12-1.32-0.33-2.64-0.66-4-1 0.33 0.33 0.66 0.66 1 1l-4 2c0.491 0.398 0.982 0.797 1.49 1.21 1.94 2.31 1.83 3.51 1.7 6.48-0.0271 0.808-0.0541 1.62-0.082 2.45-0.0348 0.615-0.0696 1.23-0.105 1.86l-2 1c0.0606 1.01 0.121 2.01 0.184 3.05 0.228 3.82 0.45 7.63 0.671 11.5 0.0953 1.64 0.192 3.27 0.291 4.91 1.33 22.1 1.33 22.1 0.854 32.6-0.33 0.33-0.66 0.66-1 1h-17v-79z" fill="#000102"/>
<path transform="translate(1310,410)" d="m0 0h9c-0.33 0.66-0.66 1.32-1 2h-2v11c0.66-0.33 1.32-0.66 2-1-0.0412-1.11-0.0825-2.23-0.125-3.38 0.125-3.62 0.125-3.62 2.12-5.62v10h2c-0.875 7.75-0.875 7.75-2 10h3c0.33 0.66 0.66 1.32 1 2 0.99-0.66 1.98-1.32 3-2 2.69-0.125 2.69-0.125 5 0 3 5.75 3 5.75 3 8h2c1.06 1.75 1.06 1.75 2 4-0.165 0.605-0.33 1.21-0.5 1.83-0.618 2.68-0.191 4.44 0.438 7.11 0.805 3.45 1.17 6.52 1.06 10.1-4.31-4.62-6.33-9.99-8.69-15.8-0.794-1.91-1.59-3.82-2.39-5.73-0.52-1.26-0.52-1.26-1.05-2.55-0.719-1.92-0.719-1.92-1.88-2.96 0.214 1.52 0.214 1.52 0.433 3.07 1.46 10.9 1.81 21.5 1.69 32.5-0.0101 1.61-0.0192 3.22-0.0273 4.83-0.0199 3.87-0.0591 7.74-0.0977 11.6h-18v-79z" fill="#000202"/>
<path transform="translate(642 648)" d="m0 0c1.77 0.135 1.77 0.135 3.57 0.273 2.87 0.352 2.87 0.352 3.87 1.35 0.0992 1.9 0.128 3.8 0.129 5.69 0.00315 1.22 0.0063 2.44 0.00955 3.69-0.00179 1.34-0.00384 2.68-0.00613 4.03 6.74e-4 1.37 0.00164 2.74 0.0029 4.12 0.00148 2.88-6.78e-4 5.77-0.00534 8.65-0.00567 3.68-0.00244 7.36 0.00357 11 0.00363 2.84 0.00245 5.68-1.28e-4 8.51-9.86e-4 2.01 0.00204 4.03 0.00513 6.04-0.00315 1.24-0.0063 2.48-0.00955 3.75-7.96e-4 1.08-0.00159 2.17-0.00241 3.28-0.137 3.45-0.585 6.78-1.13 10.2-2.63 0.0807-5.25 0.14-7.88 0.188-0.746 0.0251-1.49 0.0503-2.26 0.0762-2.17 0.0293-2.17 0.0293-5.86-0.264-2.35-3.52-2.26-4.99-2.27-9.17-0.00953-1.27-0.0191-2.54-0.0289-3.85 2.61e-4 -1.39 0.0012-2.78 0.00276-4.17-0.00389-1.42-0.00822-2.85-0.013-4.27-0.00746-2.98-0.00717-5.96-0.00191-8.95 0.0058-3.82-0.0111-7.65-0.0343-11.5-0.0147-2.94-0.0156-5.88-0.0125-8.82-5.14e-4 -1.41-0.00576-2.82-0.0158-4.23-0.0123-1.97-0.00364-3.94 0.00601-5.91-6.29e-4 -1.12-0.00126-2.24-0.00191-3.4 0.374-2.77 0.374-2.77 1.77-4.59 3.51-2.58 5.87-2.15 10.2-1.8z" fill="#8CBFCF"/>
<path transform="translate(901 648)" d="m0 0c1.16 0.00387 2.31 0.00773 3.5 0.0117 2.93 0.301 2.93 0.301 4.93 2.3 0.241 2.86 0.241 2.86 0.227 6.56 2.92e-4 0.673 5.84e-4 1.35 8.85e-4 2.04-0.0014 2.23-0.017 4.46-0.0326 6.69-0.00373 1.54-0.00658 3.09-0.00858 4.63-0.00764 4.07-0.0273 8.13-0.0494 12.2-0.0204 4.15-0.0296 8.3-0.0397 12.4-0.0215 8.14-0.0556 16.3-0.0977 24.4-2.65 0.0268-5.29 0.0468-7.94 0.0625-0.755 0.00838-1.51 0.0168-2.29 0.0254-1.93 0.00863-3.85-0.0356-5.78-0.0879-4.1-4.1-2.19-16.5-2.2-21.7-0.0057-1.31-0.0114-2.63-0.0173-3.98-0.0105-2.77-0.0163-5.54-0.0198-8.31-0.00552-3.55-0.0296-7.1-0.058-10.6-0.0231-3.39-0.0251-6.79-0.0299-10.2-0.0123-1.27-0.0247-2.55-0.0374-3.86 3e-3 -1.18 6e-3 -2.36 0.00909-3.57-0.00365-1.04-0.00729-2.08-0.011-3.15 0.367-2.59 0.367-2.59 1.7-4.43 2.65-1.85 5.06-1.52 8.23-1.48z" fill="#8CBFCF"/>
<path transform="translate(759,424)" d="m0 0c0.33 0.66 0.66 1.32 1 2h6c-0.33 0.99-0.66 1.98-1 3h3c-1.41 4.81-3.04 9.27-5.45 13.7-8.29 15.5-9.06 29-8.55 46.3-3.15 0.0289-6.29 0.0468-9.44 0.0625-0.898 0.00838-1.8 0.0168-2.72 0.0254-1.28 0.00483-1.28 0.00483-2.59 0.00977-0.791 0.00524-1.58 0.0105-2.4 0.0159-1.86-0.114-1.86-0.114-2.86-1.11-0.357-4.18-0.47-8.37-0.613-12.6-0.074-2.1-0.165-4.2-0.257-6.29-0.0486-1.34-0.0961-2.69-0.143-4.03-0.069-1.83-0.069-1.83-0.139-3.69 0.218-4.92 1.43-8.33 4.15-12.4 2.97 0.33 5.94 0.66 9 1-0.33-0.99-0.66-1.98-1-3 0.471-0.398 0.941-0.797 1.43-1.21 1.89-2.15 2.23-3.68 2.76-6.48 0.238-1.21 0.238-1.21 0.48-2.45 0.164-0.922 0.164-0.922 0.332-1.86h2c-0.33-0.99-0.66-1.98-1-3 0.33-0.66 0.66-1.32 1-2h4v-5c0.99-0.33 1.98-0.66 3-1z" fill="#000202"/>
<path transform="translate(1447,418)" d="m0 0c-0.519 4.17-1.71 6.25-4.56 9.31-0.641 0.697-1.28 1.39-1.94 2.11-0.494 0.519-0.987 1.04-1.5 1.57-0.545-0.217-1.09-0.433-1.65-0.656-6.13-2.27-11.9-3.73-18.3-1.72-5.08 2.44-7.15 6.2-9.02 11.4-0.768 2.81-0.768 2.81-1 5-0.681-0.165-1.36-0.33-2.06-0.5-5.11-0.871-9.9-0.721-14.9 0.5-1.62-1.44-1.62-1.44-3-4 0.145-7.92 4.56-15.6 10.1-21 15.3-12.5 31.8-12.7 47.9-1.95z" fill="#000202"/>
<path transform="translate(631,433)" d="m0 0c0.99 0.66 1.98 1.32 3 2 2.28 0.454 2.28 0.454 4.69 0.625 0.808 0.0748 1.62 0.15 2.45 0.227 0.615 0.049 1.23 0.098 1.86 0.148 0.857 3.31 1.44 6.62 2 10 0.33 1.32 0.66 2.64 1 4-2.31 1.98-4.62 3.96-7 6 1.26 4.07 2.77 7.72 4.79 11.5 0.53 1 1.06 2 1.61 3.03 0.827 1.54 0.827 1.54 1.67 3.12 1.1 2.05 2.19 4.11 3.29 6.16 0.485 0.904 0.97 1.81 1.47 2.74 1.18 2.47 1.18 2.47 2.18 6.47h-22c-1.89-3.99-1.89-3.99-3.81-8.06-0.39-0.824-0.781-1.65-1.18-2.5-6.28-13.3-6.28-13.3-7-20.4 0.99-0.33 1.98-0.66 3-1-0.0412-0.743-0.0825-1.49-0.125-2.25 0.131-2.87 0.691-4.3 2.12-6.75 0.33-0.66 0.66-1.32 1-2-0.99-0.66-1.98-1.32-3-2 0.784-0.433 1.57-0.866 2.38-1.31 3.19-2.05 4.39-3.67 5.25-7.38 0.124-0.763 0.247-1.53 0.375-2.31z" fill="#000102"/>
<path transform="translate(920,410)" d="m0 0h23c1.86 4.95 3.59 9.71 5.09 14.7 0.371 1.24 0.743 2.48 1.13 3.76 0.388 1.31 0.776 2.62 1.16 3.93 0.4 1.35 0.8 2.69 1.2 4.04 0.594 2 1.19 4 1.78 6 1.1 3.7 2.21 7.4 3.34 11.1 0.354 1.17 0.354 1.17 0.715 2.36 0.599 1.97 1.2 3.95 1.81 5.92 0.72 2.92 1.2 5.17 0.777 8.15-4.05 2.7-6.18 2.23-11 2-0.66-0.33-1.32-0.66-2-1-0.825-0.165-1.65-0.33-2.5-0.5-2.5-0.5-2.5-0.5-4.5-1.5 0.33-0.99 0.66-1.98 1-3l1 1c1.51 0.232 3.04 0.412 4.56 0.562 0.826 0.0838 1.65 0.168 2.5 0.254 0.957 0.0909 0.957 0.0909 1.93 0.184 0.33-0.66 0.66-1.32 1-2-0.615 0.0116-1.23 0.0232-1.86 0.0352-0.808 0.00902-1.62 0.018-2.45 0.0273-0.801 0.0116-1.6 0.0232-2.43 0.0352-2.26-0.0977-2.26-0.0977-5.26-1.1-4-4.46-4-4.46-4-7h2c-2.48-12.4-2.48-12.4-5-25h2c-0.0412-0.949-0.0825-1.9-0.125-2.88 0.125-3.12 0.125-3.12 2.12-5.12v2h2c-0.99-5.28-1.98-10.6-3-16h-16v-1z" fill="#000102"/>
<path transform="translate(557,411)" d="m0 0c2 1 2 1 2.85 3.25 0.28 0.993 0.56 1.99 0.848 3.01 0.32 1.12 0.64 2.24 0.97 3.4 0.34 1.22 0.679 2.44 1.03 3.7 0.352 1.24 0.705 2.48 1.07 3.76 0.937 3.3 1.87 6.61 2.79 9.92 0.946 3.37 1.9 6.74 2.86 10.1 1.87 6.62 3.73 13.2 5.59 19.9l-2 1c-0.33 0.99-0.66 1.98-1 3-4.38 1.85-9.53 1.5-13.9 0-1.02-0.495-1.02-0.495-2.06-1-0.103-1.07-0.206-2.14-0.312-3.25-0.687-3.75-1.09-5.1-3.69-7.75-2.49-0.695-2.49-0.695-5.19-0.75-0.901-0.0567-1.8-0.113-2.73-0.172-1.03-0.0387-1.03-0.0387-2.08-0.0781v-1h11c-0.277-1.05-0.554-2.1-0.84-3.18-1.89-7.27-3.62-14.3-4.16-21.8h2v-7l2-1c0.392-2.55 0.392-2.55 0.5-5.5 0.156-3.03 0.156-3.03 0.5-5.5l2-1c0.66-0.66 1.32-1.32 2-2z" fill="#000202"/>
<path transform="translate(977,463)" d="m0 0h4v2c4.46-0.495 4.46-0.495 9-1-0.66 0.66-1.32 1.32-2 2 0.577 0.248 1.15 0.495 1.75 0.75 2.25 1.25 2.25 1.25 3.97 3.29 3.07 2.63 5.01 2.5 9.01 2.57 1.3 0.0322 2.59 0.0645 3.93 0.0977 1.36 0.0147 2.73 0.0291 4.09 0.043 1.38 0.0282 2.76 0.0581 4.14 0.0898 3.37 0.0707 6.74 0.123 10.1 0.16 0.0269 2.48 0.0468 4.96 0.0625 7.44 0.00838 0.707 0.0168 1.41 0.0254 2.14 0.00865 1.81-0.0357 3.61-0.0879 5.42-1 1-1 1-2.94 1.12-0.85-0.00222-1.7-0.00444-2.58-0.00673-1.44-1.13e-4 -1.44-1.13e-4 -2.91-2.29e-4 -1.04-0.00516-2.09-0.0103-3.17-0.0156-1.06-0.00141-2.13-0.00283-3.22-0.00429-3.41-0.00562-6.83-0.0182-10.2-0.0309-2.31-0.00501-4.62-0.00958-6.92-0.0137-5.67-0.0111-11.3-0.0278-17-0.0488-0.0136-2.37-0.0235-4.73-0.0312-7.1-0.0058-1.32-0.0116-2.64-0.0176-3.99 0.0625-5.01 0.47-9.94 1.05-14.9z" fill="#060A09"/>
<path transform="translate(735,561)" d="m0 0c3 2 3 2 4 5l1-1c2-0.0408 4-0.0425 6 0 0.33-1.32 0.66-2.64 1-4 3 0 3 0 4.44 1.38 0.516 0.536 1.03 1.07 1.56 1.62 1.32 0.685 2.66 1.35 4 2 0.908 0.681 1.82 1.36 2.75 2.06 3.83 2.28 6.8 3.19 11.2 2.94 3.63-1.32 3.63-1.32 7-3 1.98-0.33 3.96-0.66 6-1 2.64 3.3 5.28 6.6 8 10-5.24 6.55-10.7 9.38-19 11-9.91 0.879-19.2-0.0294-27.6-5.8-4.64-3.91-7.77-7.75-10.4-13.2-0.413-0.742-0.825-1.49-1.25-2.25-0.75-1.75-0.75-1.75-0.75-4.75 0.66-0.33 1.32-0.66 2-1z" fill="#060A09"/>
<path transform="translate(798,509)" d="m0 0h60c1.12 10.1 1.12 10.1 0 16-2.42 0.0541-4.83 0.0937-7.25 0.125-0.682 0.0168-1.36 0.0335-2.07 0.0508-3.72 0.0361-6.58 0.00109-9.68-2.18-0.433-0.681-0.866-1.36-1.31-2.06-1.66-2.28-1.66-2.28-5.12-2.81-3.45-0.121-4.81-0.064-7.56 1.88-2.32 2.11-2.32 2.11-4 6-11.4-0.495-11.4-0.495-23-1v-16z" fill="#060A09"/>
<path transform="translate(604,411)" d="m0 0c4.5-0.0877 9-0.141 13.5-0.188 1.9-0.0377 1.9-0.0377 3.84-0.0762 10.1-0.0792 17.2 1.02 24.7 8.26 4.79 6.77 4.59 13.9 4 22-0.74 2.65-1.65 4.58-3 7-3-2-3-2-3.69-4.94-0.312-3.06-0.312-3.06-0.312-6.06-0.603-0.0142-1.21-0.0284-1.83-0.043-6.61-0.394-6.61-0.394-9.48-3.27-0.557-0.887-1.11-1.77-1.69-2.69-2.44-3.15-3.71-3.94-7.67-4.83-1.36-0.158-2.72-0.298-4.08-0.422-0.697-0.0773-1.39-0.155-2.11-0.234-1.71-0.187-3.42-0.354-5.14-0.516-0.33 2.97-0.66 5.94-1 9-0.33-1.32-0.66-2.64-1-4-1.32-0.33-2.64-0.66-4-1 0.33-0.66 0.66-1.32 1-2h1l-2-1c-0.125-5.75-0.125-5.75 1-8h-2v-7z" fill="#060A09"/>
<path transform="translate(530,509)" d="m0 0h49v16h-29c-0.33 0.66-0.66 1.32-1 2v-3h-6v-2c-0.897 0.278-0.897 0.278-1.81 0.562-2.19 0.438-2.19 0.438-5.19-0.562v2h-2v20h-3c-0.747-4.65-1.12-9.1-1.1-13.8 0.0025-1.12 5e-3 -2.24 0.00757-3.39 0.0091-1.4 0.0182-2.8 0.0276-4.24 0.0206-4.48 0.0412-8.95 0.0625-13.6z" fill="#060A09"/>
<path transform="translate(454,469)" d="m0 0c0.66 0.33 1.32 0.66 2 1v2c0.961-0.126 0.961-0.126 1.94-0.254 0.865-0.102 1.73-0.204 2.62-0.309 0.847-0.104 1.69-0.209 2.57-0.316 2.87-0.121 2.87-0.121 6.1 0.352 3.7 0.517 7.29 0.732 11 0.844 0.984 0.0312 0.984 0.0312 1.99 0.063 2.07 0.0647 4.14 0.124 6.2 0.183 1.41 0.0433 2.83 0.0869 4.24 0.131 3.44 0.106 6.88 0.208 10.3 0.307 0.0269 2.48 0.0468 4.96 0.0625 7.44 0.00838 0.707 0.0168 1.41 0.0254 2.14 0.00865 1.81-0.0357 3.61-0.0879 5.42-1 1-1 1-2.98 1.12-0.868-0.00222-1.74-0.00444-2.63-0.00673-0.981-7.55e-5 -1.96-1.51e-4 -2.97-2.29e-4 -1.07-0.00516-2.13-0.0103-3.23-0.0156-1.63-0.00212-1.63-0.00212-3.29-0.00429-3.48-0.00562-6.97-0.0182-10.5-0.0309-2.36-0.00501-4.71-0.00958-7.07-0.0137-5.79-0.0111-11.6-0.0283-17.4-0.0488 0.33-6.6 0.66-13.2 1-20z" fill="#060A09"/>
<path transform="translate(883,423)" d="m0 0 2 1v65h-17c-1.72-3.44-0.994-7.39-0.879-11.2 0.0236-0.907 0.0472-1.81 0.0715-2.75 0.0767-2.9 0.161-5.81 0.245-8.71 0.0532-1.97 0.106-3.93 0.158-5.9 0.129-4.83 0.265-9.65 0.404-14.5h1c0.33 3.3 0.66 6.6 1 10 0.268-0.784 0.536-1.57 0.812-2.38 1.19-2.62 1.19-2.62 4.19-4.62 1.99-0.39 3.99-0.732 6-1-0.426-4.05-0.897-7.65-2.06-11.6-1.02-3.75-1.46-6.58-0.938-10.4 2.38-2 2.38-2 5-3z" fill="#000102"/>
<path transform="translate(686,470)" d="m0 0c0.33 0.99 0.66 1.98 1 3h29v16h-49v-12c0.99-0.99 1.98-1.98 3-3 1.67 0.308 3.34 0.644 5 1 3.29-1 3.29-1 6-3 1.67-0.0406 3.33-0.0427 5 0v-2z" fill="#060A09"/>
<path transform="translate(494,546)" d="m0 0h1v9c1.98 0.33 3.96 0.66 6 1 0.248 1.09 0.495 2.19 0.75 3.31 1.27 3.75 1.91 4.79 5.25 6.69-0.312 2.88-0.312 2.88-1 6-0.99 0.66-1.98 1.32-3 2-0.73 2.56-0.73 2.56-1 5-0.99 0.33-1.98 0.66-3 1v3c-1.73 0.65-3.46 1.3-5.19 1.94-1.44 0.539-1.44 0.539-2.92 1.09-4.54 1.53-8.67 2.1-13.5 2.11-1.57 0.00193-1.57 0.00193-3.16 0.00391-1.08-0.00387-2.16-0.00773-3.27-0.0117-1.62 0.0058-1.62 0.0058-3.27 0.0117-1.04-0.00129-2.09-0.00258-3.16-0.00391-0.947-0.00113-1.89-0.00226-2.87-0.00342-2.66-0.128-5.1-0.537-7.69-1.13 0.33-0.99 0.66-1.98 1-3h9c0.33-1.65 0.66-3.3 1-5h2v-4c1.91-1.72 3.71-2.86 6-4v2c1.73-0.428 3.46-0.868 5.19-1.31 1.44-0.365 1.44-0.365 2.92-0.738 4.08-1.34 7.05-2.46 9.22-6.3 2.12-6.24 3.39-12.1 3.67-18.7z" fill="#000202"/>
<path transform="translate(909,556)" d="m0 0 2 2c-0.33 0.66-0.66 1.32-1 2 3.63 0.66 7.26 1.32 11 2-0.33 0.66-0.66 1.32-1 2h2c0.33-0.66 0.66-1.32 1-2h2c-0.33-0.99-0.66-1.98-1-3h2c0.66 1.98 1.32 3.96 2 6h4c2.12 1.94 2.12 1.94 4 4 2.35 1.18 3.82 1.13 6.44 1.12 0.782 0.00258 1.56 0.00516 2.37 0.00781 2.37-0.049 2.37-0.049 5.19-1.13v2c0.66 0.33 1.32 0.66 2 1-0.99 0.66-1.98 1.32-3 2-0.66-0.33-1.32-0.66-2-1v8c6.93 0.495 6.93 0.495 14 1v2c-11.5 4.72-22.8 6.21-34.5 1.34-8.19-4.43-14.5-11.5-17.5-20.3-0.226-3.02-0.185-5.98 0-9z" fill="#060A09"/>
<path transform="translate(399,517)" d="m0 0h2c0.00331 0.898 0.00662 1.8 0.01 2.72 0.0812 21.8 0.173 43.7 0.277 65.5 0.0502 10.6 0.0966 21.1 0.134 31.7 0.0329 9.2 0.0727 18.4 0.121 27.6 0.0253 4.87 0.0471 9.75 0.0606 14.6 0.0128 4.59 0.0349 9.17 0.064 13.8 0.00908 1.69 0.0148 3.37 0.0168 5.06 0.00332 2.3 0.0188 4.6 0.0373 6.89 0.00553 1.29 0.0111 2.57 0.0168 3.9 0.25 3.09 0.783 4.59 2.26 7.23 0.18 2.67 0.253 5.23 0.227 7.89 2.92e-4 0.791 5.84e-4 1.58 8.85e-4 2.4-0.00139 2.61-0.0169 5.22-0.0326 7.82-0.00373 1.81-0.00658 3.62-0.00858 5.43-0.00763 4.76-0.0273 9.52-0.0494 14.3-0.0205 4.86-0.0296 9.72-0.0397 14.6-0.0214 9.53-0.0556 19.1-0.0977 28.6-1.94-0.312-1.94-0.312-4-1-0.934-2.8-1.12-4.47-1.12-7.37-0.00199-0.898-0.00398-1.8-0.00603-2.72 0.00291-0.987 0.00583-1.97 0.00883-2.99-8.54e-4 -1.05-0.00171-2.1-0.00259-3.18-0.00165-3.53 0.00386-7.06 0.00932-10.6 2.82e-4 -2.52 1.24e-4 -5.05-4.43e-4 -7.57-2.28e-4 -5.44 0.00262-10.9 0.00824-16.3 0.00812-7.86 0.0107-15.7 0.012-23.6 0.00219-12.8 0.00885-25.5 0.0183-38.3 0.00918-12.4 0.0163-24.8 0.0205-37.2 2.63e-4 -0.764 5.25e-4 -1.53 7.96e-4 -2.31 0.00131-3.83 0.00257-7.66 0.00381-11.5 0.0104-31.8 0.0281-63.6 0.0503-95.4zm2 217 1 2zm0 4v8h1v-8h-1zm0 11 1 4zm1 12 1 2z" fill="#52232F"/>
<path transform="translate(1268,636)" d="m0 0c3 1 3 1 5 2-0.33 1.98-0.66 3.96-1 6 0.603 0.17 1.21 0.34 1.83 0.516 1.2 0.364 1.2 0.364 2.42 0.734 1.18 0.348 1.18 0.348 2.39 0.703 2.93 1.3 4.44 2.47 6.36 5.05 0.355 3.16 0.355 3.16 0.188 6.62-0.371 4.35-0.371 4.35 0.812 8.38-0.99 0.33-1.98 0.66-3 1-0.33 1.98-0.66 3.96-1 6 0.66 0.33 1.32 0.66 2 1-1 2.5-1 2.5-3 5-4.68 0.679-6.8 0.747-10.8-1.75-3.5-3.6-5.48-5.75-5.56-10.9-0.268-4.15-1.2-6.82-3.25-10.4-2.25-4.19-3.12-7.23-2.3-12 1.53-3.26 4.09-4.52 7.21-6.11 0.566-0.289 1.13-0.577 1.71-0.875v-1z" fill="#080C0B"/>
<path transform="translate(667,509)" d="m0 0h48v16c-4.16 0.023-8.33 0.0429-12.5 0.0549-1.41 0.00501-2.83 0.0118-4.24 0.0205-2.04 0.0122-4.08 0.0178-6.12 0.0222-1.84 0.00786-1.84 0.00786-3.71 0.0159-3.24-0.107-6.26-0.499-9.44-1.11v-4h-5c-0.33 0.66-0.66 1.32-1 2v-2h-3c0.33 0.99 0.66 1.98 1 3-0.99 0.33-1.98 0.66-3 1-0.33-0.33-0.66-0.66-1-1v-14z" fill="#060A09"/>
<path transform="translate(531,571)" d="m0 0h1v7h2c0.33 1.32 0.66 2.64 1 4 0.433-0.639 0.866-1.28 1.31-1.94 1.69-2.06 1.69-2.06 4.69-3.06 0.66-0.99 1.32-1.98 2-3h4l2-2c3.07-0.227 3.07-0.227 6.98-0.195 1.03 0.00424 1.03 0.00424 2.08 0.00858 2.19 0.0112 4.38 0.0363 6.57 0.0617 1.48 0.01 2.97 0.0192 4.45 0.0273 3.64 0.0221 7.28 0.0566 10.9 0.0977 0.199 1.35 0.384 2.71 0.562 4.06 0.157 1.13 0.157 1.13 0.316 2.29 0.121 2.65 0.121 2.65-0.879 9.65h-49v-17z" fill="#060A09"/>
<path transform="translate(179,457)" d="m0 0c0.99 0.66 1.98 1.32 3 2-0.521 6.94-2.09 12.8-4.38 19.4-8.63 26.1-7.55 50.9-2.62 77.6h-5v-2c-0.99-0.33-1.98-0.66-3-1-4.92-23.3-5.72-46.9 1-70 0.157-0.647 0.315-1.29 0.477-1.96 2-7.77 4.56-16 8.52-23 0.66-0.33 1.32-0.66 2-1z" fill="#8CBFCF"/>
<path transform="translate(864,410)" d="m0 0h21v14c-1.98 0.66-3.96 1.32-6 2-0.21 5.14 0.538 9.1 2 14 0.427 2.66 0.717 5.32 1 8-0.554 0.205-1.11 0.41-1.68 0.621-0.724 0.269-1.45 0.539-2.2 0.816-0.719 0.267-1.44 0.534-2.18 0.809-1.98 0.733-1.98 0.733-3.95 1.75-0.165 0.66-0.33 1.32-0.5 2-0.165 0.66-0.33 1.32-0.5 2-0.99 0.495-0.99 0.495-2 1v-21c-0.99 0.99-1.98 1.98-3 3-1.61-3.23-0.0846-5.69 1-9 1.14-2.64 1.95-3.95 4-6v-4c-1.65-0.33-3.3-0.66-5-1-0.326 0.652-0.652 1.3-0.988 1.98-2.34 4.67-4.67 9.35-7.01 14h-1c0.326-9.12 3.67-16.6 7-25z" fill="#060A09"/>
<path transform="translate(1451,410)" d="m0 0h21c0.846 2.37 1.69 4.74 2.56 7.19 0.27 0.738 0.54 1.48 0.819 2.24 1.34 3.88 2.11 6.68 0.619 10.6-2.56 1.81-2.56 1.81-5 3 0.33 0.99 0.66 1.98 1 3 0.0953 2.33 0.13 4.67 0.125 7 0.00387 1.86 0.00387 1.86 0.00781 3.75-0.133 3.25-0.133 3.25-1.13 6.25h-2c-2.57-5.8-5.13-11.6-7.69-17.4-0.872-1.98-1.74-3.95-2.62-5.92-1.25-2.83-2.5-5.67-3.75-8.5-0.394-0.887-0.787-1.77-1.19-2.69-0.36-0.821-0.721-1.64-1.09-2.49-0.32-0.724-0.64-1.45-0.969-2.19-0.683-1.8-0.683-1.8-0.683-3.8z" fill="#060A09"/>
<path transform="translate(1438,467)" d="m0 0c3.37 1.12 4.37 2.2 6.69 4.81 0.623 0.687 1.25 1.37 1.89 2.08 1.43 2.11 1.43 2.11 1.43 6.11-1.79 1.63-1.79 1.63-4.19 3.12-0.777 0.498-1.55 0.995-2.36 1.51-7.65 4.26-14.9 4.52-23.5 4.37v-3c-1.11-0.248-2.23-0.495-3.38-0.75-3.62-1.25-3.62-1.25-5.19-2.94-0.651-3.44 0.437-6.06 1.56-9.31h1v5c0.99-2.97 1.98-5.94 3-9 0.784 0.33 1.57 0.66 2.38 1 5.15 1.42 10.7 2.31 15.7 0.0664 1.64-1.01 3.28-2.04 4.91-3.07z" fill="#000102"/>
<path transform="translate(788 515)" d="m0 0c1.39 1.38 1.39 1.38 3.27 3.62-0.41 0.543-0.82 1.09-1.24 1.64-0.539 0.715-1.08 1.43-1.63 2.17-0.534 0.708-1.07 1.42-1.62 2.14-1.22 1.65-2.37 3.34-3.51 5.04-2.63-0.451-4.88-0.945-7.31-2.06-4.89-1.71-9.71-1.28-14.7 0.0625-0.66-0.33-1.32-0.66-2-1 0.375-1.94 0.375-1.94 1-4 0.66-0.33 1.32-0.66 2-1v-4c-3.28-2.19-6.21-3-10-4-0.66 1.65-1.32 3.3-2 5h-3c-0.155 0.897-0.155 0.897-0.312 1.81-1.17 3.71-3.51 5.07-6.69 7.19h-3c2.37-6.87 7.51-11.9 13.9-15.4 11.5-5.06 26.5-5.43 36.9 2.75z" fill="#060909"/>
<path transform="translate(1291,460)" d="m0 0c1.63 3.04 2.72 6.05 3.73 9.35 0.464 1.52 0.464 1.52 0.938 3.08 0.317 1.05 0.634 2.11 0.961 3.2 0.487 1.59 0.487 1.59 0.984 3.22 2.39 7.9 2.39 7.9 2.39 10.2h-20c-3.38-10.1-3.38-10.1-4.19-14.6-0.159-0.847-0.317-1.69-0.48-2.57-0.11-0.617-0.219-1.23-0.332-1.87h-2v-5c3.32-1.11 4.69-0.933 8 0 0.66 0.66 1.32 1.32 2 2 3.08 0.167 3.08 0.167 6 0 0.66-2.31 1.32-4.62 2-7z" fill="#000102"/>
<path transform="translate(1435 411)" d="m0 0c4.5 1.59 8.43 4.21 12.4 6.84-0.519 4.17-1.71 6.25-4.56 9.31-0.641 0.697-1.28 1.39-1.94 2.11-0.494 0.519-0.987 1.04-1.5 1.57-0.545-0.217-1.09-0.433-1.65-0.656-7.56-2.79-13.5-2.92-21.3-1.34v-17c6.14-3.07 12.1-2.39 18.6-0.844z" fill="#060A09"/>
<path transform="translate(1038,509)" d="m0 0h18v24c-0.66-1.32-1.32-2.64-2-4-1.98 0.33-3.96 0.66-6 1-0.33 1.65-0.66 3.3-1 5h-2v2c-0.99 0.66-1.98 1.32-3 2-1.21 3.05-1.21 3.05-2 6h-1c-0.859-4.44-1.12-8.63-1.1-13.1 0.00212-0.986 0.00212-0.986 0.00429-1.99 0.00555-2.08 0.0181-4.16 0.0309-6.23 0.00502-1.42 0.00958-2.84 0.0137-4.25 0.0101-3.46 0.0297-6.91 0.0488-10.4z" fill="#060A09"/>
<path transform="translate(1127 412)" d="m0 0c8.86 4.22 8.86 4.22 10.6 8.8-0.494 0.554-0.987 1.11-1.5 1.68-0.961 1.09-0.961 1.09-1.94 2.2-0.638 0.719-1.28 1.44-1.93 2.18-1.68 1.85-1.68 1.85-2.63 3.95-2.73-0.481-5.16-1.06-7.75-2.06-5.44-1.57-10.8-1.48-16.2 0.0625-0.66-0.99-1.32-1.98-2-3 1-2 1-2 4-3 0.0412-1.28 0.0825-2.56 0.125-3.88 0.0348-1.08 0.0348-1.08 0.0703-2.18-0.012-2.18-0.012-2.18-2.2-3.95 6.93-3.16 14.3-3.3 21.4-0.797z" fill="#060A09"/>
<path transform="translate(1353,410)" d="m0 0h18v23c-0.66-0.33-1.32-0.66-2-1v-2c-0.615 0.144-1.23 0.289-1.86 0.438-0.808 0.186-1.62 0.371-2.45 0.562-0.801 0.186-1.6 0.371-2.43 0.562-2.26 0.438-2.26 0.438-5.26 0.438-0.049 0.964-0.098 1.93-0.148 2.92-0.0748 1.26-0.15 2.53-0.227 3.83-0.104 1.88-0.104 1.88-0.211 3.8-0.367 3.06-0.811 4.87-2.41 7.45-1.64-3.28-1.12-6.91-1.1-10.5 0.00141-0.841 0.00283-1.68 0.00429-2.55 0.00561-2.69 0.0182-5.38 0.0309-8.07 0.00501-1.82 0.00958-3.64 0.0137-5.46 0.0102-4.47 0.0298-8.94 0.0488-13.4z" fill="#060A09"/>
<path transform="translate(976,410)" d="m0 0c10 0 10 0 19 1v48h-1c-0.894-6.87-1.15-13.6-1.12-20.5-0.0058-1.47-0.0058-1.47-0.0117-2.97 0.00789-5.92 0.372-11.7 1.14-17.5-1.32 0.33-2.64 0.66-4 1-0.33 2.64-0.66 5.28-1 8l-2-1c-0.33 1.65-0.66 3.3-1 5h-3c-0.122 0.521-0.245 1.04-0.371 1.58-0.802 3.09-1.75 6.12-2.69 9.17-0.362 1.17-0.724 2.34-1.1 3.55-0.277 0.892-0.554 1.78-0.84 2.7h-1c-0.33-12.5-0.66-25.1-1-38z" fill="#060A09"/>
<path transform="translate(693 540)" d="m0 0c1.61 0.0145 1.61 0.0145 3.25 0.0293 1.12 0.0251 2.24 0.0503 3.39 0.0762 1.13 0.0135 2.26 0.0271 3.43 0.041 2.8 0.0354 5.59 0.0892 8.38 0.146v16h-24c-0.66-3.3-1.32-6.6-2-10-0.33-0.99-0.66-1.98-1-3 2.57-3.3 4.47-3.36 8.54-3.29z" fill="#060A09"/>
<path transform="translate(517,465)" d="m0 0c0.593 0.164 1.19 0.327 1.8 0.496 2.77 0.633 5.37 0.568 8.2 0.504 0.66 1.32 1.32 2.64 2 4 0.99-0.33 1.98-0.66 3-1 0.226 1.83 0.43 3.67 0.625 5.5 0.174 1.53 0.174 1.53 0.352 3.09 0.0234 3.41 0.0234 3.41-1.98 11.4h-20c1.49-8.17 3.64-16 6-24z" fill="#000202"/>
<path transform="translate(957,542)" d="m0 0c2 3 2 3 2.31 6.44 0.844 4.37 2.19 5.03 5.69 7.56 0.625 2.19 0.625 2.19 1 4 0.99 0.33 1.98 0.66 3 1-0.456 4.74-1.1 7.29-4 11-0.705 2.32-1.37 4.66-2 7-0.642 1.35-1.3 2.68-2 4-1.58-0.142-3.17-0.289-4.75-0.438-0.882-0.0812-1.76-0.162-2.67-0.246-2.27-0.279-4.38-0.704-6.58-1.32-1.12-5.75-1.12-5.75 0-8 2.06-0.625 2.06-0.625 4-1-0.33-1.32-0.66-2.64-1-4h2c2.61-6.35 4.3-12 4.62-18.9 0.0387-0.688 0.0773-1.38 0.117-2.09 0.0933-1.68 0.177-3.36 0.258-5.04z" fill="#000102"/>
<path transform="translate(401,409)" d="m0 0c2.62 0.375 2.62 0.375 5 1-0.0251 0.567-0.0501 1.13-0.0759 1.72-0.535 12.4-0.933 24.8-1.18 37.3-0.0311 1.58-0.0311 1.58-0.0629 3.18-0.103 5.3-0.2 10.6-0.29 15.9-0.187 10.3-0.47 20.6-1.39 30.9h-3c-1.07-17-1.19-34-1.19-51.1 1.03e-4 -3.87-0.0138-7.74-0.0308-11.6-0.0111-3.01-0.0131-6.01-0.0126-9.02-0.00118-1.43-0.00559-2.86-0.0133-4.29-0.00974-1.98-0.00567-3.96-8.95e-4 -5.93-0.00143-1.12-0.00285-2.24-0.00432-3.4 0.247-2.64 0.247-2.64 2.25-4.64zm1 14 1 2zm0 3 1 2zm-1 55v5h1v-5h-1z" fill="#171012"/>
<path transform="translate(593,509)" d="m0 0c7.59 0.33 15.2 0.66 23 1 3 8 3 8 3 11l-2 2c-0.33 0.66-0.66 1.32-1 2h-23v-16z" fill="#060A09"/>
<path transform="translate(1244 466)" d="m0 0c0.784 0.0412 1.57 0.0825 2.38 0.125 0.103 0.763 0.206 1.53 0.312 2.31 0.743 2.91 1.35 3.89 3.69 5.69 0.99 0.33 1.98 0.66 3 1-0.475 2.15-0.955 4.29-1.44 6.44-0.267 1.19-0.534 2.39-0.809 3.62-0.754 2.94-0.754 2.94-1.75 3.94-1.42 0.0865-2.84 0.107-4.25 0.0977-0.854-0.00322-1.71-0.00645-2.59-0.00977-0.898-0.00838-1.8-0.0168-2.72-0.0254-0.902-0.00451-1.8-0.00902-2.73-0.0137-2.24-0.0118-4.47-0.0283-6.71-0.0488 0.963-5.23 2.02-10.4 3.38-15.6 0.214-0.826 0.428-1.65 0.648-2.5 0.977-1.93 0.977-1.93 2.95-2.59 0.668-0.115 1.34-0.229 2.02-0.348 2-2 2-2 4.62-2.12z" fill="#000102"/>
<path transform="translate(558,572)" d="m0 0h22c1.12 10.1 1.12 10.1 0 16-4.86 0.0838-9.2-0.166-14-1h-3.19c-3.29 0-5.71-0.964-8.81-2v-2h3c-0.33-0.99-0.66-1.98-1-3h2v-8z" fill="#000202"/>
<path transform="translate(471,571)" d="m0 0h2v2c0.66-0.165 1.32-0.33 2-0.5 3.73-0.622 7.22-0.564 11-0.5-0.619 0.165-1.24 0.33-1.88 0.5-3.4 2.4-3.35 5.5-4.12 9.5 6.44-0.495 6.44-0.495 13-1-1.32-0.66-2.64-1.32-4-2 3.47-0.495 3.47-0.495 7-1 1 3 1 3 1 6-1.39 0.483-2.79 0.961-4.19 1.44-0.777 0.267-1.55 0.534-2.36 0.809-4.38 1.35-8.44 1.88-13 1.89-1.57 0.00193-1.57 0.00193-3.16 0.00391-1.08-0.00387-2.16-0.00773-3.27-0.0117-1.62 0.0058-1.62 0.0058-3.27 0.0117-1.04-0.00129-2.09-0.00258-3.16-0.00391-0.947-0.00113-1.89-0.00226-2.87-0.00342-2.66-0.128-5.1-0.537-7.69-1.13 0.33-0.99 0.66-1.98 1-3h9c0.33-1.65 0.66-3.3 1-5h2v-4c2-1.69 2-1.69 4-3v-1z" fill="#060A09"/>
<path transform="translate(1129 444)" d="m0 0c1.44-0.0058 1.44-0.0058 2.91-0.0117 1.37 0.00193 1.37 0.00193 2.77 0.00391 0.83 0.00113 1.66 0.00226 2.52 0.00342 1.93 0.129 1.93 0.129 2.93 1.13 0.0409 2.33 0.0424 4.67 0 7-2 1-2 1-5.94 0.875-3.23-0.165-3.23-0.165-5.75 1.69-0.65 0.712-0.65 0.712-1.31 1.44-2.69-0.312-2.69-0.312-5-1v4h-2v-2h-2c-0.33 0.66-0.66 1.32-1 2v-2c-0.66 0.66-1.32 1.32-2 2h-3c-0.33-4.62-0.66-9.24-1-14 5.98-1.04 11.8-1.15 17.9-1.12z" fill="#060A09"/>
<path transform="translate(907,540)" d="m0 0h1c0.33 1.98 0.66 3.96 1 6 0.66-1.98 1.32-3.96 2-6 2.31 0.33 4.62 0.66 7 1v7h-2c0.33 1.65 0.66 3.3 1 5h2c0.33-0.66 0.66-1.32 1-2 0.99 1.49 0.99 1.49 2 3h3v2h2c0.33-0.99 0.66-1.98 1-3 0.39 1.77 0.762 3.54 1.12 5.31 0.209 0.986 0.418 1.97 0.633 2.99 0.242 2.7 0.242 2.7-1.76 5.7-1.76-3.09-2-4.23-2-8-0.33 0.99-0.66 1.98-1 3h-2c-0.33 0.99-0.66 1.98-1 3-3.37-0.547-5.08-1.05-8-3-1.33-0.682-2.66-1.35-4-2v-3c-0.33 1.65-0.66 3.3-1 5h-1c-1.18-4.62-1.11-9.08-1.06-13.8 0.00677-1.18 0.00677-1.18 0.0137-2.39 0.0117-1.93 0.0296-3.87 0.0488-5.8z" fill="#000202"/>
<path transform="translate(1039,552)" d="m0 0c3.87 3.22 4.88 6.15 6 11v-6h2c0.867 4.62 0.922 8.18 0.188 12.9-0.278 3.15 0.179 6.13 0.656 9.24 0.156 1.88 0.156 1.88-0.844 3.88-6.75 0.125-6.75 0.125-9-1-0.379-2.4-0.379-2.4-0.562-5.38-0.204-3.16-0.431-5.61-1.44-8.62h-2c-1.8-2.76-2.01-3.89-1.62-7.25 0.206-0.908 0.412-1.82 0.625-2.75 2.44 0.375 2.44 0.375 5 1 0.33 0.66 0.66 1.32 1 2v-9z" fill="#000002"/>
<path transform="translate(1013,527)" d="m0 0c3.27 0 5.89 0.117 8.56 2.24 3.69 4.5 3.73 12.2 3.44 17.8-0.66 0.33-1.32 0.66-2 1 0.0954 0.699 0.191 1.4 0.289 2.12 0.111 0.91 0.222 1.82 0.336 2.76 0.116 0.905 0.232 1.81 0.352 2.74 0.00773 0.786 0.0155 1.57 0.0234 2.38l-2 2c-1.27-2.83-2.54-5.67-3.81-8.5-0.535-1.19-0.535-1.19-1.08-2.4-6.33-14.2-6.33-14.2-5.29-18.5 0.392-0.846 0.784-1.69 1.19-2.56v-1z" fill="#060A09"/>
<path transform="translate(782 567)" d="m0 0c3.26 1.17 4.34 2.68 6.34 5.47 0.605 0.826 1.21 1.65 1.83 2.5 0.447 0.638 0.895 1.28 1.36 1.93-3.05 4.58-6.73 7.41-12 9-3.82-0.488-5.45-2.18-8-5 0.516-0.536 1.03-1.07 1.56-1.62 1.76-2.38 1.76-2.38 1.12-5.62-0.227-0.908-0.454-1.82-0.688-2.75 5.25-4.03 5.25-4.03 8.47-3.91z" fill="#000102"/>
<path transform="translate(1310,410)" d="m0 0h9c-0.33 0.66-0.66 1.32-1 2h-2v11c0.66-0.33 1.32-0.66 2-1-0.0412-1.11-0.0825-2.23-0.125-3.38 0.125-3.62 0.125-3.62 2.12-5.62v10h2c-0.26 1.99-0.521 3.97-0.781 5.96-0.272 2.2-0.272 2.2-0.219 5.04v1h-9c-0.33 1.32-0.66 2.64-1 4-1.05-9.69-1.1-19.3-1-29z" fill="#060A09"/>
<path transform="translate(615 445)" d="m0 0c1.38 0.0133 2.77 0.0372 4.15 0.0703 0.706 0.00902 1.41 0.018 2.14 0.0273 1.74 0.0236 3.49 0.0595 5.23 0.0977-0.309 0.923-0.619 1.85-0.938 2.8-0.711 2.14-1.4 4.29-2.06 6.45-1 2.75-1 2.75-3 4.75-0.643 2.07-0.643 2.07-1 4v-2c-2.64-0.33-5.28-0.66-8-1v-2c-0.99-0.33-1.98-0.66-3-1 0.114-1.63 0.242-3.25 0.375-4.88 0.0696-0.905 0.139-1.81 0.211-2.74 0.699-4.02 1.9-4.35 5.89-4.58z" fill="#060A09"/>
<path transform="translate(609,475)" d="m0 0c2 4 2 4 2 14h-20v-13h6c2 2 2 2 2 4 2.64 0.33 5.28 0.66 8 1 0.66-1.98 1.32-3.96 2-6z" fill="#060A09"/>
<path transform="translate(919,476)" d="m0 0c-0.308 1.98-0.621 3.96-0.938 5.94-0.261 1.65-0.261 1.65-0.527 3.34-0.535 2.72-0.535 2.72-1.54 3.72-1.49 0.0867-2.98 0.107-4.47 0.0977-0.899-0.00322-1.8-0.00645-2.72-0.00977-0.946-0.00838-1.89-0.0168-2.87-0.0254-0.949-0.00451-1.9-0.00902-2.88-0.0137-2.35-0.0118-4.71-0.0298-7.06-0.0488 0.99-2.97 1.98-5.94 3-9 0.33 0.66 0.66 1.32 1 2h3v-2c1.03-0.103 2.06-0.206 3.12-0.312 4.65-0.825 8.23-3.69 12.9-3.69z" fill="#000303"/>
<path transform="translate(1219,440)" d="m0 0v49c-0.99-0.33-1.98-0.66-3-1h2c-0.33-9.24-0.66-18.5-1-28-1.32-0.33-2.64-0.66-4-1-0.33-0.66-0.66-1.32-1-2-0.66 0.66-1.32 1.32-2 2-0.32-6.72 0.521-11.8 3-18 4.88-1 4.88-1 6-1z" fill="#000002"/>
<path transform="translate(1181,435)" d="m0 0c0.99 0.33 1.98 0.66 3 1 1.65 4.43 2.23 8.29 2 13-0.66-1.32-1.32-2.64-2-4 0.229 1.92 0.484 3.84 0.75 5.75 0.139 1.07 0.278 2.13 0.422 3.23 0.955 3.48 2.31 4.54 4.83 7.02 0.609 2.58 0.609 2.58 0.75 5.25 0.0567 0.892 0.113 1.78 0.172 2.7 0.0258 0.675 0.0516 1.35 0.0781 2.05-3.59-4.51-5.7-9.52-8.06-14.8-0.67-1.45-0.67-1.45-1.35-2.92-2.45-5.4-4.37-10.5-5.58-16.3h-2c-0.33 1.32-0.66 2.64-1 4-2.47-0.99-2.47-0.99-5-2 0.33-1.32 0.66-2.64 1-4 0.949 0.0206 1.9 0.0412 2.88 0.0625 8.75-0.175 8.75-0.175 9.12-0.0625z" fill="#060A09"/>
<path transform="translate(851,667)" d="m0 0c0.66 0.33 1.32 0.66 2 1 2.22 7.15 3.37 14.6 4 22h-11c-0.962-3.85-1.06-4.74-0.0391-8.29 0.224-0.795 0.449-1.59 0.68-2.41 0.242-0.82 0.485-1.64 0.734-2.49 0.235-0.832 0.469-1.66 0.711-2.52 1.76-6.14 1.76-6.14 2.91-7.29z" fill="#FC0807"/>
<path transform="translate(1127,413)" d="m0 0c4.51 1.26 7.49 2.9 11 6-1.41 3.04-3.09 5.59-5.12 8.25-0.539 0.706-1.08 1.41-1.63 2.14-0.41 0.531-0.82 1.06-1.24 1.61-3.81-0.672-7.35-1.73-11-3 0.667-1.33 1.33-2.67 2-4 0.289-0.701 0.578-1.4 0.875-2.12 1.38-2.3 2.68-2.9 5.12-3.88v-5z" fill="#000202"/>
<path transform="translate(1332,433)" d="m0 0c3 5.75 3 5.75 3 8h2c1.06 1.75 1.06 1.75 2 4-0.165 0.605-0.33 1.21-0.5 1.83-0.618 2.68-0.191 4.44 0.438 7.11 0.805 3.45 1.17 6.52 1.06 10.1-4.26-4.58-6.28-9.86-8.62-15.6-0.783-1.88-1.57-3.75-2.35-5.63-0.341-0.827-0.682-1.65-1.03-2.51-0.922-2.15-1.92-4.23-2.99-6.3 2.46-1.23 4.28-1.07 7-1z" fill="#060A09"/>
<path transform="translate(747,465)" d="m0 0h6c0.714 8.02 1.15 15.9 1 24h-8c0.0838-0.927 0.168-1.85 0.254-2.81 0.102-1.2 0.204-2.4 0.309-3.63 0.104-1.19 0.209-2.39 0.316-3.62 0.04-0.971 0.0799-1.94 0.121-2.94-0.33-0.33-0.66-0.66-1-1-0.239-7.52-0.239-7.52 1-10z" fill="#060A09"/>
<path transform="translate(1276,418)" d="m0 0c1.32 0.33 2.64 0.66 4 1 1.03 3.45 2.05 6.91 3.06 10.4 0.295 0.985 0.589 1.97 0.893 2.98 0.274 0.941 0.548 1.88 0.83 2.85 0.257 0.869 0.513 1.74 0.778 2.63 0.437 2.15 0.437 2.15-0.563 4.15-6.46-2.19-6.46-2.19-8.81-5.69-4.03-11.2-4.03-11.2-2.19-16.3 0.66-0.33 1.32-0.66 2-1v-1z" fill="#000102"/>
<path transform="translate(1210,464)" d="m0 0c1.19 6.17 0.886 9.23-2 15-0.373 1.32-0.73 2.65-1 4-1.66 0.382-3.32 0.714-5 1-1.92-1.92-1.48-5.24-1.69-7.81-0.107-1.24-0.214-2.49-0.324-3.77 0.0112-3.26 0.151-4.79 2.01-7.42 2.71-1.35 5.01-1.07 8-1z" fill="#000002"/>
<path transform="translate(1158,410)" d="m0 0h8c-0.66 2.31-1.32 4.62-2 7h-2c0.144 0.825 0.289 1.65 0.438 2.5 0.186 1.15 0.371 2.31 0.562 3.5 0.247 1.26 0.495 2.52 0.75 3.81 0.747 5.98-1.48 11.3-4.75 16.2-0.931-3.93-1.12-7.58-1.1-11.6 0.00322-1.25 0.00645-2.49 0.00977-3.78 0.0126-1.94 0.0126-1.94 0.0254-3.92 0.00451-1.31 0.00902-2.63 0.0137-3.98 0.0118-3.24 0.0282-6.47 0.0488-9.71z" fill="#060A09"/>
<path transform="translate(399,738)" d="m0 0h2c0.33 5.28 0.66 10.6 1 16 0.33-2.31 0.66-4.62 1-7h1v30c-1.32-0.33-2.64-0.66-4-1-1.23-3.7-1.12-7.1-1.1-10.9 0.00141-0.773 0.00283-1.55 0.00429-2.34 0.00559-2.47 0.0181-4.93 0.0309-7.4 0.00502-1.67 0.00958-3.35 0.0137-5.02 0.011-4.1 0.0283-8.2 0.0488-12.3z" fill="#D64F71"/>
<path transform="translate(1201,410)" d="m0 0h18v8c-0.33-0.639-0.66-1.28-1-1.94-3.04-3.14-5.7-2.79-10-3.06h-2c0.33 0.99 0.66 1.98 1 3-0.99 1.49-0.99 1.49-2 3-0.247 2.08-0.403 4.16-0.5 6.25-0.302 4.91-0.884 9.12-2.5 13.8h-1v-29z" fill="#060909"/>
<path transform="translate(494,516)" d="m0 0c7.91 0 7.91 0 10.4 2.31 2.62 2.69 2.62 2.69 3.62 5.69-1.69 2.69-1.69 2.69-4 5h-5c-0.99 0.33-1.98 0.66-3 1-0.66-4.62-1.32-9.24-2-14z" fill="#000202"/>
<path transform="translate(1435,412)" d="m0 0c3.69 0.845 6.86 1.73 9 5-0.213 3.4-1.69 4.69-4 7v3c-2.33 0.0424-4.67 0.0409-7 0-1.81-1.81-1.22-4.5-1.25-6.94-0.0258-1.08-0.0516-2.16-0.0781-3.28 0.162-1.38 0.162-1.38 0.328-2.79 0.99-0.66 1.98-1.32 3-2z" fill="#000102"/>
<path transform="translate(1217,469)" d="m0 0h1v19h-9c0.976-10.7 0.976-10.7 3-15 2.06-0.688 2.06-0.688 4-1 0.33-0.99 0.66-1.98 1-3z" fill="#070B0A"/>
<path transform="translate(1291,465)" d="m0 0h2c0.844 2.54 1.68 5.08 2.5 7.62 0.238 0.713 0.477 1.43 0.723 2.16 1.34 4.19 2.16 7.76 1.78 12.2-1 1-1 1-2.85 1.1-2.05-0.0326-4.1-0.0651-6.15-0.0977 0.33-1.2 0.66-2.39 1-3.62 1.46-6.41 1.17-12.8 1-19.4z" fill="#060A09"/>
<path transform="translate(1409,455)" d="m0 0c0.182 0.592 0.364 1.18 0.551 1.79 1.41 4.42 2.82 8.33 5.45 12.2h-9v-2h-6c-0.33-0.66-0.66-1.32-1-2 2.31 0.33 4.62 0.66 7 1v-2h-6c0.33-1.98 0.66-3.96 1-6 0.66 0.33 1.32 0.66 2 1 0.33-0.33 0.66-0.66 1-1 3.84-3 3.84-3 5-3z" fill="#000102"/>
<path transform="translate(525,438)" d="m0 0h4v2h-2v2c0.99 0.33 1.98 0.66 3 1 0.286 8.57 0.286 8.57-2 12h-8c1.65-5.61 3.3-11.2 5-17z" fill="#000102"/>
<path transform="translate(647,478)" d="m0 0h2c0.836 1.64 1.67 3.29 2.5 4.94 0.464 0.917 0.928 1.83 1.41 2.78 1.09 2.29 1.09 2.29 1.09 3.29h-21c0.99-0.33 1.98-0.66 3-1 0.33-0.99 0.66-1.98 1-3l3 3c0.66-1.65 1.32-3.3 2-5h5v-5z" fill="#060A09"/>
<path transform="translate(636,413)" d="m0 0c4 1.37 6.99 2.99 10 6 0.812 3.25 0.812 3.25 1 6-4.83 0.345-7.95-0.269-12-3-1.23-3-1.28-4.31-0.0625-7.31 0.351-0.557 0.701-1.11 1.06-1.69z" fill="#000202"/>
<path transform="translate(175,569)" d="m0 0c1.89 0.141 1.89 0.141 4 1 1.52 2.11 1.52 2.11 2.81 4.75 0.44 0.861 0.879 1.72 1.33 2.61 0.973 3 0.733 4.65-0.145 7.64-3.28-0.566-4.97-1.33-7-4-1.55-3.76-2.35-6.93-2-11 0.33-0.33 0.66-0.66 1-1z" fill="#8CBFCF"/>
<path transform="translate(704,473)" d="m0 0h12v11c-2.97-0.33-5.94-0.66-9-1l0.293-6.05c-0.0967-0.642-0.193-1.28-0.293-1.95-0.99-0.66-1.98-1.32-3-2z" fill="#000102"/>
<path transform="translate(667,509)" d="m0 0h48v5c-0.99 0.66-1.98 1.32-3 2-3-2-3-2-4-5-4.25-0.0247-8.51-0.0428-12.8-0.0549-1.45-0.00504-2.9-0.0119-4.34-0.0205-2.08-0.0121-4.16-0.0178-6.23-0.0222-1.25-0.00524-2.5-0.0105-3.79-0.0159-2.76-0.215-2.76-0.215-3.87 1.11-2.33 0.0409-4.67 0.0424-7 0v-2h-2c-0.33 0.66-0.66 1.32-1 2v-3z" fill="#000002"/>
<path transform="translate(994,509)" d="m0 0c3.55 0.662 6.67 1.57 10 3v2c-0.804 0.413-1.61 0.825-2.44 1.25-2.82 1.51-2.82 1.51-3.25 4.44-0.155 1.64-0.155 1.64-0.312 3.31-0.609 2.68-1.31 5.34-2 8h-1c-0.912-7.36-1.11-14.6-1-22z" fill="#060A09"/>
<path transform="translate(574,543)" d="m0 0h1v13h-19c1.32-0.66 2.64-1.32 4-2 0.928-0.474 1.86-0.949 2.81-1.44 3.19-1.56 3.19-1.56 5.09-2.25 2.17-0.741 2.17-0.741 5.09-2.32 1.05-2.58 1.05-2.58 1-5z" fill="#060A09"/>
<path transform="translate(1409,415)" d="m0 0c1.04 3.13 0.934 3.99 0 7-1.26 0.103-2.52 0.206-3.81 0.312-3.33 0.384-3.33 0.384-6.06 2.25-0.371 0.474-0.743 0.949-1.12 1.44h-2c-0.66 2.97-1.32 5.94-2 9h-3c1.13-7.41 5.34-13 11.2-17.6 2.67-1.95 3.41-2.44 6.81-2.44z" fill="#060A09"/>
<path transform="translate(875,509)" d="m0 0c1.47 0.255 2.93 0.579 4.38 0.938 2.71 0.666 4.82 1.06 7.62 1.06-0.562 3.26-1.29 5.04-4 7-3.6 0.9-5.45 1.18-9 0-0.0977-6.15-0.0977-6.15 0-8 0.33-0.33 0.66-0.66 1-1z" fill="#060A09"/>
<path transform="translate(651,510)" d="m0 0c2 2 2 2 2.2 5.04-0.0232 1.18-0.0464 2.37-0.0703 3.59-0.018 1.19-0.0361 2.38-0.0547 3.6-0.0232 0.915-0.0464 1.83-0.0703 2.77-1.6 0.0542-3.21 0.0929-4.81 0.125-0.893 0.0232-1.79 0.0464-2.71 0.0703-2.48-0.195-2.48-0.195-5.48-2.2 2.12-2.06 2.12-2.06 5-4 3.31 0.25 3.31 0.25 6 1v-10z" fill="#060A09"/>
<path transform="translate(1443,417)" d="m0 0c1.32 0.33 2.64 0.66 4 1-0.519 4.17-1.71 6.25-4.56 9.31-0.641 0.697-1.28 1.39-1.94 2.11-0.741 0.779-0.741 0.779-1.5 1.57-2.97-0.99-5.94-1.98-9-3v-1h7c0.33-0.66 0.66-1.32 1-2v2h2c-0.227-0.577-0.454-1.15-0.688-1.75-0.312-2.25-0.312-2.25 1.06-4.38 0.536-0.619 1.07-1.24 1.62-1.88 0.33-0.66 0.66-1.32 1-2z" fill="#040606"/>
<path transform="translate(542,509)" d="m0 0h37c-0.33 1.32-0.66 2.64-1 4v-3c-0.66 1.32-1.32 2.64-2 4-5.75-0.75-5.75-0.75-8-3-2.72-0.372-2.72-0.372-5.88-0.414-1.17-0.0387-2.33-0.0773-3.54-0.117-1.22-0.0309-2.45-0.0619-3.71-0.0938-1.23-0.0387-2.46-0.0773-3.73-0.117-3.05-0.0945-6.1-0.18-9.14-0.258v-1z" fill="#000002"/>
<path transform="translate(516,470)" d="m0 0c2.94 1.06 2.94 1.06 6 3 0.875 3.69 0.875 3.69 1 7h-9c0.875-7.75 0.875-7.75 2-10z" fill="#060A09"/>
<path transform="translate(591,410)" d="m0 0c2.48 0.495 2.48 0.495 5 1 0.251 6.39 0.251 6.39-0.969 9.34-1.19 3.06-1.44 5.7-1.66 8.97-0.0748 1.07-0.15 2.14-0.227 3.24-0.049 0.808-0.098 1.62-0.148 2.45h-1c-0.33-8.25-0.66-16.5-1-25z" fill="#060A09"/>
<path transform="translate(400,410)" d="m0 0c0.66 0.33 1.32 0.66 2 1 0.0582 3.08 0.0937 6.17 0.125 9.25 0.0168 0.873 0.0335 1.75 0.0508 2.64 0.00645 0.844 0.0129 1.69 0.0195 2.56 0.0105 0.775 0.0209 1.55 0.0317 2.35-0.254 2.46-1 4.07-2.23 6.2-1-4.99-1.15-9.75-1.12-14.8-0.00387-0.775-0.00773-1.55-0.0117-2.35 0.00999-5.71 0.00999-5.71 1.14-6.84z" fill="#F30909"/>
<path transform="translate(476 442)" d="m0 0c3.05 0.18 4.63 0.611 7.19 2.19v2h-2c0.33 0.99 0.66 1.98 1 3-3 0-3 0-5-1v2c-1.32-0.33-2.64-0.66-4-1-0.381-1.99-0.713-3.99-1-6 1-1 1-1 3.81-1.19z" fill="#060A09"/>
<path transform="translate(1082,468)" d="m0 0c1.5 1.38 1.5 1.38 3 3v2c1.47 1.14 1.47 1.14 3.31 2.25 3.54 2.4 5.1 4.72 6.69 8.75-3.54-0.596-5.46-1.94-8.12-4.31-0.683-0.594-1.37-1.19-2.07-1.8-1.82-1.9-2.86-3.44-3.8-5.89 0.375-2.25 0.375-2.25 1-4z" fill="#050908"/>
<path transform="translate(688 572)" d="m0 0c3.06 0.125 3.06 0.125 5.06 1.12-0.33 1.65-0.66 3.3-1 5h-3v2c-1.65-0.33-3.3-0.66-5-1-0.0425-2-0.0408-4 0-6 1-1 1-1 3.94-1.12z" fill="#070B0A"/>
<path transform="translate(1471,432)" d="m0 0c3 1 3 1 4 3 0.0967 1.98 0.13 3.96 0.125 5.94 0.00258 1.06 0.00516 2.12 0.00781 3.21-0.133 2.85-0.133 2.85-1.13 5.85h-2c-0.0606-0.976-0.121-1.95-0.184-2.96-0.0838-1.27-0.168-2.54-0.254-3.86-0.0812-1.26-0.162-2.53-0.246-3.83-0.188-3.35-0.188-3.35-1.32-6.36 0.33-0.33 0.66-0.66 1-1z" fill="#030505"/>
<path transform="translate(966,518)" d="m0 0 5 5c-2.19 2.06-2.19 2.06-5 4-2.81-0.25-2.81-0.25-5-1-0.33-0.99-0.66-1.98-1-3 1.65-0.33 3.3-0.66 5-1 0.33-1.32 0.66-2.64 1-4z" fill="#000202"/>
<path transform="translate(467,411)" d="m0 0h17c-4.43 3.32-5.47 3.35-10.8 3.19-1.17-0.0271-2.34-0.0541-3.55-0.082-0.892-0.0348-1.78-0.0696-2.7-0.105v-3z" fill="#070B0A"/>
<path transform="translate(1431,484)" d="m0 0c1.19 2.06 1.19 2.06 2 4-4.41 1.1-8.48 1.08-13 1l3-3c-0.33-0.66-0.66-1.32-1-2 5.62-1.12 5.62-1.12 9 0z" fill="#060A09"/>
<path transform="translate(1133,416)" d="m0 0c1.65 0.99 3.3 1.98 5 3-1.29 2.87-2.57 4.98-5 7h-2c-0.33-1.65-0.66-3.3-1-5h3v-5z" fill="#050908"/>
<path transform="translate(471,526)" d="m0 0h1v20c-3.27-3.27-2.85-7.53-3-12 0.377-6.38 0.377-6.38 2-8z" fill="#070B0A"/>
<path transform="translate(935,435)" d="m0 0h1c2.15 7.04 3.15 13.6 3 21-4.23-6.34-4.24-13.6-4-21z" fill="#060A09"/>
<path transform="translate(512,482)" d="m0 0c0.66 0.66 1.32 1.32 2 2-0.33 0.66-0.66 1.32-1 2 0.748 0.049 1.5 0.098 2.27 0.148 0.985 0.0748 1.97 0.15 2.98 0.227 0.975 0.0696 1.95 0.139 2.95 0.211 2.8 0.414 2.8 0.414 6.8 2.41h-17c0.33-2.31 0.66-4.62 1-7z" fill="#060A09"/>
<path transform="translate(995,532)" d="m0 0h1c0.0606 0.71 0.121 1.42 0.184 2.15 0.0838 0.919 0.168 1.84 0.254 2.79 0.0812 0.917 0.162 1.83 0.246 2.78 0.0769 2.25 0.0769 2.25 1.32 3.29 0.32 3.85-0.404 6.51-2 10h-1v-21z" fill="#070B0A"/>
<path transform="translate(498,480)" d="m0 0v3c-2.52 1.26-4.31 1.1-7.12 1.06-0.91-0.00902-1.82-0.018-2.76-0.0273-0.699-0.0116-1.4-0.0232-2.12-0.0352 0.66-0.33 1.32-0.66 2-1v-2c7.75-1 7.75-1 10-1z" fill="#000202"/>
<path transform="translate(643 480)" d="m0 0c1.11 0.34 1.11 0.34 2.25 0.688-0.99 0.33-1.98 0.66-3 1-1.23 3.01-1.23 3.01-2 6-0.99-0.33-1.98-0.66-3-1-0.688-2.06-0.688-2.06-1-4 2.45-2.27 3.34-3.08 6.75-2.69z" fill="#020505"/>
<path transform="translate(399,738)" d="m0 0h2c0.33 3.63 0.66 7.26 1 11-0.99 0.66-1.98 1.32-3 2v-13z" fill="#88354A"/>
<path transform="translate(735,468)" d="m0 0c0.99 0.33 1.98 0.66 3 1 0.33 2.31 0.66 4.62 1 7-1.32 0.33-2.64 0.66-4 1v-9z" fill="#060A09"/>
</svg>
