<?xml version="1.0" standalone="no"?>
<!DOCTYPE svg PUBLIC "-//W3C//DTD SVG 20010904//EN"
 "http://www.w3.org/TR/2001/REC-SVG-20010904/DTD/svg10.dtd">
<svg version="1.0" xmlns="http://www.w3.org/2000/svg"
 width="500.000000pt" height="500.000000pt" viewBox="0 0 500.000000 500.000000"
 preserveAspectRatio="xMidYMid meet">

<g transform="translate(0.000000,500.000000) scale(0.100000,-0.100000)"
fill="#000000" stroke="none">
<path d="M2491 3035 c-29 -74 -25 -146 14 -255 14 -41 28 -84 31 -95 3 -14
-24 -56 -95 -147 l-100 -127 26 -63 c45 -111 34 -112 131 13 48 62 99 127 114
143 l27 31 30 -35 c17 -19 30 -38 31 -43 0 -4 -12 -26 -27 -49 -24 -36 -28
-51 -28 -117 0 -67 5 -86 39 -160 36 -80 38 -88 32 -153 l-6 -68 144 0 144 0
11 31 c10 29 12 31 51 24 55 -9 67 4 76 82 5 52 10 67 25 70 25 7 24 25 -6 81
-18 33 -25 62 -25 100 0 61 -15 94 -62 138 -47 45 -86 62 -165 74 -75 11 -108
9 -139 -8 -18 -9 -25 -8 -41 11 -40 43 -44 61 -22 96 21 35 37 75 75 191 30
90 33 177 9 239 -21 50 -27 44 -44 -39 -13 -61 -85 -200 -104 -200 -7 0 -21
-14 -32 -30 -11 -16 -22 -30 -25 -30 -3 0 -16 39 -29 86 -17 61 -22 100 -18
137 3 29 0 70 -7 92 l-12 40 -23 -60z m427 -577 c6 -6 12 -26 12 -44 0 -27 -6
-38 -29 -52 -20 -12 -27 -22 -22 -32 16 -33 -11 -126 -33 -113 -6 4 -22 8 -35
9 -13 0 -30 9 -37 19 -12 17 -14 16 -25 -8 -17 -37 11 -80 49 -76 26 3 32 -1
32 -20 0 -18 -71 -4 -91 18 -26 28 -30 84 -6 102 4 3 9 16 12 28 5 29 32 71
45 72 39 5 38 4 26 46 -10 32 35 77 67 67 12 -3 28 -11 35 -16z m62 -107 c0
-5 -6 -14 -14 -20 -11 -9 -16 -9 -21 0 -4 6 -1 15 6 20 18 11 29 11 29 0z m53
-5 c3 -8 3 -17 0 -20 -7 -7 -33 13 -33 25 0 15 27 10 33 -5z m-79 -52 c9 -22
8 -26 -6 -22 -13 5 -20 38 -8 38 4 0 11 -7 14 -16z m92 0 c-3 -9 -6 -21 -6
-27 0 -8 -3 -8 -10 -1 -12 12 -3 44 12 44 6 0 7 -7 4 -16z m-31 -34 c3 -5 -1
-10 -9 -10 -9 0 -19 0 -23 -1 -4 0 -9 4 -11 10 -5 14 35 14 43 1z m-17 -59 c7
0 24 -13 37 -27 33 -36 33 -87 1 -119 -37 -37 -71 -41 -119 -16 -23 13 -39 19
-34 15 11 -12 -24 -44 -48 -44 -12 0 -30 9 -40 20 -35 39 11 103 57 79 17 -9
23 -9 26 0 3 9 7 9 18 0 15 -13 48 -4 39 10 -3 6 3 14 12 20 15 8 16 14 7 39
-10 27 -9 29 10 27 12 -1 27 -3 34 -4z"/>
<path d="M2852 2441 c-18 -11 -12 -41 10 -55 14 -8 22 -7 35 7 29 29 -10 71
-45 48z m38 -27 c0 -8 -7 -14 -15 -14 -15 0 -21 21 -9 33 10 9 24 -2 24 -19z"/>
<path d="M2781 2327 c-6 -8 -8 -16 -5 -20 10 -9 34 4 34 19 0 18 -14 18 -29 1z"/>
<path d="M2822 2328 c3 -7 13 -15 24 -17 16 -3 17 -1 5 13 -16 19 -34 21 -29
4z"/>
<path d="M2845 2280 c3 -5 8 -10 11 -10 2 0 4 5 4 10 0 6 -5 10 -11 10 -5 0
-7 -4 -4 -10z"/>
<path d="M2980 2159 c0 -12 5 -19 12 -17 18 6 20 25 3 31 -10 5 -15 0 -15 -14z"/>
<path d="M3006 2121 c-3 -5 1 -14 9 -21 13 -10 15 -9 15 9 0 21 -14 28 -24 12z"/>
<path d="M2932 2083 c-10 -4 -10 -8 -1 -19 16 -20 29 -17 29 6 0 20 -5 23 -28
13z"/>
<path d="M2980 2070 c0 -13 5 -20 13 -17 6 2 12 10 12 17 0 7 -6 15 -12 18 -8
2 -13 -5 -13 -18z"/>
<path d="M2825 2060 c3 -5 8 -10 11 -10 2 0 4 5 4 10 0 6 -5 10 -11 10 -5 0
-7 -4 -4 -10z"/>
</g>
</svg>
